<?xml version="1.0" encoding="UTF-8"?><svg id="Calque_2" xmlns="http://www.w3.org/2000/svg" viewBox="0 0 256.11 493.54"><defs><style>.cls-1{fill:#f9f7f5;}.cls-2{fill:#ff7a00;}</style></defs><g id="Calque_3"><g><path d="m222.56,458.53c-1.51-.82-3.19-1.52-4.87-2.09-1.75-.59-3.47-1.3-5.24-1.82-2.6-.77-5.17-1.64-7.84-2.21-1.61-.35-3.22-.71-4.81-1.08-1.52-.35-3.04-.67-4.57-1.01-1.62-.35-3.23-.68-4.86-.95-1.19-.2-2.44-.17-3.52-.53-.71-.23-1.38-.29-2.07-.41-.77-.12-1.54-.49-2.29-.46-1.96.09-3.81-.92-5.79-.53-.93-.66-2.02-.59-3.04-.47-1.1.14-2.03-.44-3.05-.52-1.6-.12-3.18-.08-4.81-.43-1.86-.4-3.84-.19-5.78-.51-2.63-.43-5.34-.05-8.04-.47-2.85-.44-5.82-.04-8.73-.12-2.85-.07-5.66-.66-8.54-.51-2.74.14-5.5-.04-8.24.05-2.68.08-5.36.31-8.04.48-3.43.22-6.85-.27-10.3.41-2.52.5-5.18-.03-7.78.53-1.79.39-3.67,0-5.55.47-1.68.43-3.51.27-5.28.5-2.53.32-5.07.54-7.58,1.05-1.16.24-2.35.07-3.56.47-1.09.36-2.41-.13-3.52.57-2.35-.16-4.58.65-6.81,1.11-2.73.56-5.49,1.14-8.21,1.81-2.88.7-5.76,1.45-8.58,2.26-3.83,1.1-7.58,2.56-11.19,4.32-2.69,1.31-5.32,2.7-7.51,4.78-2,1.9-1.87,3.13.04,5,.12.12.22.26.36.35,1.77,1.14,3.5,2.34,5.33,3.41,3.37,1.97,7.07,3.05,10.66,4.45,2.59,1.02,5.44,1.25,7.96,2.51,1.94-.1,3.73.73,5.56,1.12,1.87.4,3.79.84,5.67,1.3,2.82.69,5.75.93,8.61,1.54,2.33.49,4.73.68,7.08.94,2.08.23,4.14.96,6.28.6.16-.03.39-.07.49,0,1.02.78,2.2.55,3.3.45,1.18-.11,2.19.45,3.3.53,2.1.14,4.18.02,6.31.42,2.53.47,5.22-.22,7.77.59,7.02-.26,14.02.34,21.03.49,1.39.03,2.88.19,4.16-.22,1.34-.43,2.6-.14,3.88-.24,1.41-.11,2.83.05,4.25-.04,2.76-.17,5.52.32,8.31-.41,1.64-.43,3.48-.09,5.23-.07,1.78.02,3.47-.69,5.29-.54,2.35.2,4.65-.83,7.04-.47.08.01.2.04.24,0,.9-.86,2.03-.35,3.05-.5,1.1-.16,2.19-.37,3.29-.49,1.84-.2,3.78-.06,5.52-.58,2.36-.7,4.79-.91,7.17-1.31,2.26-.38,4.48-1.17,6.81-1.12.84-.87,1.99-.35,2.98-.65,1.71-.53,3.47-.88,5.19-1.35,2.17-.59,4.32-1.23,6.48-1.85,2.82-.81,5.5-1.97,8.22-3.09,5.4-2.21,8.24-3.81,11.67-7.33v-1.76c-2.13-3.25-5.41-4.73-8.48-6.38Z"/><path d="m238.54,269.9c-3.28.45-6.31,1.99-9.66,2.05-1.78,1.18-3.94.88-5.9,1.43-2.28.64-4.74.58-7.05,1.13-1.37.33-2.76.17-4.03.53-.79.23-1.53.32-2.32.42-.85.11-1.69.39-2.55.47-2.18.21-4.36.35-6.54.51-.17.01-.39-.07-.49.01-.93.75-2.02.38-3.05.5-1.02.12-2.02.38-3.04.48-1.52.14-3.03-.09-4.56.44-1.04.36-2.31,0-3.47.09-1.1.08-2.19.37-3.29.47-1.93.17-3.85.07-5.81.41-2.78.49-5.67.07-8.54.52-3.21.51-6.5-.04-9.79.48-2.93.46-5.99.19-8.98.07-2.96-.12-5.86.44-8.79.5-4.83.09-9.67.11-14.5,0-4.85-.1-9.68.18-14.55-.39-5.38-.63-10.85.27-16.29-.52-3.38-.49-6.88.27-10.28-.57-4.04.38-8.01-.77-12.04-.5-1.96-.77-4.02-.44-6.04-.5-.17,0-.39.07-.49-.01-1.01-.79-2.21-.56-3.3-.44-1.19.12-2.18-.47-3.3-.55-2.35-.16-4.69-.33-7.04-.5-.17-.01-.41.07-.49-.01-.74-.82-1.7-.36-2.55-.49-.93-.14-1.86-.37-2.79-.48-1.68-.2-3.45-.07-5.01-.6-1.23-.41-2.46-.08-3.55-.46-2.17-.75-4.46-.82-6.66-1.39-2.42-.63-4.91-.99-7.37-1.52-3.28-.71-6.46-1.72-9.7-2.55-.66-.17-1.3-.4-2.17-.68v2.7c0,46.32,0,92.64.03,138.96,0,2.59-.18,5.18.38,7.81.48,2.26.02,4.69.56,7.03.36,1.55.11,3.27.59,4.77.92,2.88,1.44,5.87,2.42,8.74,1.27,3.73,2.61,7.43,4.51,10.88,1.51,2.73,2.74,5.64,4.9,7.98.59.64.92,1.52,1.25,2.09.49-.37.95-.69,1.39-1.05.87-.73,1.68-1.53,2.59-2.2,2.58-1.89,5.44-3.28,8.37-4.51.78-.33,1.54-.72,2.34-.99,2.27-.75,4.48-1.68,6.77-2.37,2.96-.9,5.91-1.98,8.92-2.54,2.86-.53,5.64-1.65,8.61-1.6,1.02-.94,2.42-.4,3.62-.92,1.19-.52,2.73-.21,3.99-.63,1.28-.44,2.64-.1,3.78-.53,1.14-.43,2.3-.1,3.3-.47,1.2-.45,2.36-.42,3.56-.44.25,0,.6.11.73-.02.76-.73,1.71-.56,2.55-.44,1.04.15,1.84-.51,2.8-.54,1.61-.04,3.19-.08,4.81-.41,2.03-.41,4.17-.14,6.29-.51,2.46-.44,5.01.02,7.54-.5,1.92-.39,3.99.01,5.98-.1,1.93-.11,3.83.18,5.82-.37,1.86-.51,3.97-.18,5.97-.1,5.26.22,10.52-.33,15.8.4,4.21.58,8.53-.26,12.79.54,2.22.42,4.53-.28,6.8.48,1.05.35,2.32,0,3.48.08,1.1.08,2.19.37,3.29.47,2.26.21,4.53.35,6.79.51.08,0,.2-.04.25,0,.84.72,1.85.4,2.8.51.94.11,1.86.37,2.79.48,1.76.2,3.59.12,5.27.59,1.13.31,2.36.06,3.26.52.84.43,1.68.08,2.31.45.85.5,1.72.32,2.56.48,1.08.21,2.25.27,3.24.63,2.44.89,5.01,1.12,7.5,1.78,3.23.85,6.41,1.85,9.6,2.8,2.35.7,4.6,1.75,6.87,2.71,5.18,2.19,9.51,4.61,12.46,7.56.28-.28.53-.43.63-.64,1.19-2.5,2.52-4.96,3.5-7.55,1.06-2.82,1.91-5.72,2.69-8.64.59-2.2,1.04-4.46,1.3-6.66.26-2.23.63-4.5.63-6.78,0-52.65,0-105.31,0-157.96v-2.31c-.56.05-.97,0-1.33.13-1.23.43-2.41,1.18-3.68,1.35Z"/><path d="m12.55,248.1c0,.45.07.91.12,1.51.62-.28,1.03-.52,1.47-.66,3.95-1.19,7.84-2.63,12-3.01,2.66-1.27,5.67-1.07,8.43-1.95.95-.3,2.01-.1,3.05-.48.92-.34,2-.11,3.04-.5.92-.34,2-.2,3.04-.49,1.19-.34,2.51-.15,3.79-.51,1.2-.33,2.52-.04,3.8-.5.89-.32,2.2.3,2.92-.15,1-.62,1.92-.34,2.85-.38.97-.04,1.87-.37,2.8-.49,1.67-.2,3.35-.12,5.05-.47,1.87-.38,3.84-.13,5.79-.51,1.88-.37,3.84-.15,5.79-.48,2.38-.4,4.84-.12,7.29-.52,2.88-.46,5.84.04,8.8-.48,2.59-.45,5.32-.17,7.98-.07,2.71.1,5.32-.66,8.04-.57,4.99.16,10,.05,14.99.05s10.17-.07,15.25.02c4.93.09,9.86-.27,14.8.41,3.97.55,8.01-.23,12.04.49,2.95.53,6.01-.12,9.04.51,2.2.46,4.51,0,6.79.49,2.11.45,4.34-.03,6.54.51,1.69.42,3.51-.01,5.3.49,1.42.4,3,.14,4.54.51,1.45.35,3.01.16,4.54.5,2.04.45,4.18.4,6.28.57.17.01.41-.07.49.01.75.76,1.7.37,2.55.5.85.13,1.69.45,2.54.47,1.62.04,3.14.89,4.79.53,2.09,1.02,4.44.96,6.65,1.39,2,.39,3.93,1.4,6.06,1.11.75.88,1.93.44,2.87.94.86.46,2.01.33,3,.58.97.25,1.9.64,2.84.98.94.34,1.86.71,3.05,1.16,0-.95,0-1.52,0-2.1-.15-8.6.41-17.2-.49-25.79-.15-1.43.17-2.86-.45-4.32-.48-1.14.1-2.47-.46-3.81-.49-1.17-.11-2.66-.55-4.02-.39-1.19-.19-2.58-.6-3.76-.44-1.27-.55-2.59-.87-3.87-.81-3.24-1.55-6.5-2.56-9.7-1.41-4.49-2.81-9.01-4.8-13.25-2.65-5.66-5.29-11.36-8.72-16.64-3.55-5.46-7.16-10.91-11.6-15.66-3.83-4.09-7.69-8.19-12.07-11.76-2.23-1.82-4.52-3.56-6.79-5.31-3.5-2.7-7.3-4.89-11.05-7.16-4.03-2.44-8.52-3.97-12.76-5.99-.89-.42-2.01-.52-3.02-.52-25.83-.03-51.65-.02-77.48-.02-.5,0-1.11-.17-1.47.05-1.8,1.1-3.86,1.56-5.74,2.45-2.44,1.15-4.92,2.24-7.27,3.55-3.75,2.09-7.38,4.39-10.96,6.78-3.81,2.55-7.35,5.41-10.69,8.45-4.49,4.08-8.73,8.44-12.48,13.27-2.1,2.71-4.2,5.4-6.14,8.22-2.43,3.53-4.53,7.25-6.56,11.03-1.86,3.47-3.59,7.01-5.07,10.65-.81,1.99-1.63,3.99-2.37,6.02-1.35,3.71-2.46,7.49-3.47,11.31-.4,1.52-.74,3.05-1.11,4.56-.24,1.01-.2,2.04-.5,3.02-.41,1.35-.82,2.71-.89,4.13-.07,1.53-.84,2.97-.5,4.54-.76.92-.4,2.02-.51,3.04-.11,1.02-.48,2.03-.46,3.04.12,5.94-.83,11.84-.56,17.79.16,3.41.02,6.83.03,10.25Z"/><path d="m164.42,31.03h-4.88v31.24c0,9.76-7.91,17.67-17.67,17.67h-26.65c-9.08,0-16.55-6.85-17.55-15.66-.08-.48-.13-.97-.13-1.48.02-10,0-19.99,0-29.99,0-.63-.06-1.26-.09-1.78h-5.36v78.32h72.33V31.03Z"/><path d="m247.53,258.19c-2.19-1.13-7.48-3.11-10.43-3.8-1.8-.42-3.58-1-5.37-1.5-1.79-.51-3.64-.88-5.43-1.31-2.82-.68-5.72-1.09-8.59-1.61-2.1-.38-4.24-.48-6.34-.98-1.14-.28-2.35-.08-3.55-.47-1.09-.35-2.34-.1-3.54-.51-.9-.31-2.19.29-2.92-.15-1-.6-1.92-.35-2.85-.37-.99-.02-1.87-.42-2.79-.5-1.68-.15-3.35-.1-5.05-.46-1.79-.38-3.67-.12-5.54-.5-1.95-.4-4-.15-6.04-.49-2.54-.42-5.17-.08-7.79-.52-2.88-.48-5.84.07-8.8-.48-2.42-.45-4.98-.03-7.48-.11-2.52-.08-5.03-.41-7.54-.46-3.83-.08-7.66-.02-11.5-.02h-11.5c-3.92,0-7.83.09-11.75-.02-3.78-.11-7.53.28-11.29.53-3.26.21-6.51-.14-9.81.39-3.19.52-6.52-.01-9.78.57-1.98.35-4.02-.17-6.06.47-1.21.38-2.65,0-3.98.09-1.35.08-2.7.49-4.04.45-2.54-.08-4.99.92-7.54.54-.08-.01-.2-.04-.24,0-.75.67-1.68.57-2.54.47-1.01-.12-1.86.44-2.8.51-1.44.11-2.86-.04-4.31.45-1.09.37-2.34.11-3.54.49-1.1.35-2.38.4-3.53.48-2.57.16-5.05.81-7.56,1.18-1.1.16-2.31.09-3.28.47-2.73,1.08-5.67,1.12-8.44,1.93-2.6.76-5.28,1.32-7.83,2.22-2.75.97-5.4,2.24-8.42,3.51,1.1.7,1.91,1.3,2.79,1.77.61.32,1.3.47,1.96.7,2.69.94,5.34,2.09,8.09,2.76,2.2.53,4.38,1.15,6.61,1.58,2.3.44,4.6.92,6.89,1.43,2.84.63,5.77.86,8.62,1.52,1.15.26,2.35.08,3.56.47,1.09.36,2.33.21,3.54.49,1.95.45,4.01.41,6.02.57.25.02.58-.1.74.02,1.03.76,2.2.54,3.3.45,1.17-.1,2.19.42,3.3.52,1.52.14,3.01.08,4.56.42,1.94.43,4,.15,6.03.53,2.21.41,4.5.07,6.79.48,2.53.46,5.17.12,7.79.51,3.38.51,6.85-.21,10.29.5,1.92.4,3.98.07,5.98.07s4.17-.06,6.25.02c1.93.08,3.86.43,5.79.46,4.5.07,9,.1,13.5,0,4.43-.1,8.85.13,13.3-.38,5.47-.63,11.02.27,16.54-.53,3.38-.49,6.85.16,10.29-.49,2.53-.48,5.17.08,7.79-.49,2.1-.46,4.34,0,6.54-.51,1.7-.4,3.52.03,5.29-.51,1.6-.49,3.31.15,5.06-.45,1.52-.52,3.32-.17,5.02-.54,2.04-.44,4.18-.4,6.28-.56.17-.01.41.07.49-.01.74-.81,1.7-.36,2.55-.5.85-.13,1.69-.37,2.54-.48,1.59-.2,3.3-.06,4.76-.6,1.13-.42,2.33-.02,3.26-.55.66-.38,1.25-.24,1.86-.37.61-.13,1.2-.49,1.79-.46,2.2.11,4.12-1.3,6.33-1.05,2-1.12,4.34-1.08,6.47-1.88,2.16-.81,4.51-1.17,6.61-2.14,1.75-.81,3.87-.95,5.13-2.73-.25-.25-.35-.41-.49-.48Z"/><path class="cls-1" d="m255.61,222c-.39-1.78.08-3.71-.54-5.54-.36-1.04.2-2.17-.44-3.33-.48-.87-.3-2.15-.5-3.26-.48-2.55-1.02-5.08-1.57-7.61-.61-2.81-1.55-5.53-2.3-8.3-.42-1.55-1.14-3.03-1.66-4.55-1.12-3.29-2.44-6.5-3.97-9.61-1.37-2.77-2.8-5.51-4.24-8.24-.83-1.58-1.68-3.15-2.66-4.65-3.42-5.25-7.15-10.29-11.14-15.13-1.72-2.08-3.57-4.07-5.48-5.98-1.97-1.97-4.08-3.8-6.14-5.67-1.33-1.2-2.54-2.63-4.08-3.45-1.17-.62-1.89-1.67-3.01-2.33-1.33-.79-2.63-1.77-3.87-2.74-3.35-2.61-7-4.71-10.74-6.69-4.02-2.13-8.05-4.24-12.26-6-3.28-1.37-6.6-2.58-9.89-3.69V30.95c3.9,0,7.72,0,11.54,0,.07,0,.15-.04.21-.09.06-.05.11-.12.07-.07V0h-109.8v30.99h12.4v82.03c0,.42,0,.83,0,1.25,0,.68-.42.99-1.01,1.18-1.98.65-3.97,1.27-5.92,2.01-2.23.86-4.45,1.75-6.59,2.78-4.32,2.08-8.62,4.2-12.75,6.66-2.15,1.28-4.15,2.78-6.3,4.06-1.09.65-1.98,1.62-3.04,2.32-4.33,2.87-8.24,6.23-11.89,9.91-2.23,2.25-4.51,4.45-6.7,6.73-1.41,1.47-2.82,2.95-4.05,4.57-2.2,2.89-4.28,5.88-6.38,8.85-2.34,3.32-4.41,6.81-6.32,10.38-1.81,3.4-3.39,6.92-4.98,10.43-1.02,2.24-1.7,4.63-2.61,6.92-1,2.53-1.59,5.17-2.48,7.72-.59,1.69-.8,3.47-1.41,5.16-.45,1.25-.06,2.84-.64,3.98-.69,1.37.13,2.94-.92,4.13-.3,2.37-.45,4.74-.95,7.1-.29,1.36-.08,2.82-.04,4.24.03,1.38-.55,2.63-.55,4.04C.06,289.7.06,351.94,0,414.18c0,2.88.79,5.67.55,8.54.74,1.09.2,2.41.59,3.51.64,1.77.83,3.63,1.35,5.43.74,2.53,1.49,5.04,2.49,7.47,1.05,2.57,2.11,5.13,3.55,7.53,2.86,4.79,5.94,9.42,9.9,13.38,1.79,1.79,3.34,3.86,5.59,5.17.28.16.51.67.49,1.01-.06,1.95.83,3.54,2.02,4.92,2.37,2.77,5.23,4.94,8.51,6.57,2.97,1.48,5.93,2.97,9.08,4.04,2.86.97,5.77,1.75,8.63,2.71,2.36.79,4.8,1.45,7.2,1.87,3.03.53,5.95,1.79,9.11,1.62,2.09,1.01,4.47.73,6.65,1.44,1.09.36,2.34.09,3.55.49,1.09.36,2.34.06,3.54.5.88.32,2.2-.3,2.92.15,1,.62,1.92.34,2.85.38.97.04,1.87.38,2.8.49,1.67.2,3.35.15,5.05.46,2.04.37,4.18.19,6.29.51,2.64.41,5.34.2,8.04.48,4.98.52,10.01.09,15.04.47,4.55.34,9.17.31,13.79-.27,5.04-.63,10.19.26,15.28-.57,2.15-.35,4.34.01,6.55-.45,2.19-.46,4.51-.1,6.79-.52,2.46-.46,5.02-.4,7.53-.57.08,0,.19.03.25,0,1.1-.74,2.46-.15,3.52-.57,1.22-.48,2.38-.34,3.57-.42.17-.01.35.05.5,0,2.28-.95,4.78-.97,7.16-1.37,2.26-.38,4.48-1.2,6.81-1.12.92-.98,2.43.03,3.34-1,1.69.06,3.23-.66,4.82-1.05,1.72-.43,3.46-.79,5.16-1.39,2.11-.74,4.28-1.31,6.41-2.02,2.64-.88,5.22-1.89,7.73-3.07,2.17-1.02,4.25-2.25,6.3-3.5,1.02-.62,1.95-1.44,2.79-2.29.85-.85,1.72-1.76,2.27-2.8.53-1,.91-2.15,1.39-3.16.5-1.06,1.93-1.65,2.85-2.54.68-.66,1.18-1.5,1.79-2.25,1.52-1.87,3.33-3.58,4.52-5.64,1.39-2.4,2.88-4.76,3.99-7.33,1.29-2.99,2.5-5.96,3.25-9.17.46-1.96,1-3.93,1.35-5.91.38-2.14.53-4.35.53-6.53.03-65.08.03-130.15,0-195.23,0-3.51.37-7.03-.41-10.56ZM92.09,31.04h5.36c.03.52.09,1.15.09,1.78,0,10,.01,19.99,0,29.99,0,.5.05.99.13,1.48-.07-.66-.12-1.33-.12-2.01v-31.33h62v.09h4.88v78.33h-72.33V31.04ZM13.08,220.07c-.02-1.01.35-2.02.46-3.04.12-1.03-.25-2.12.51-3.04-.34-1.57.44-3.02.5-4.54.06-1.42.47-2.78.89-4.13.3-.98.26-2.01.5-3.02.37-1.51.71-3.04,1.11-4.56,1.01-3.82,2.12-7.59,3.47-11.31.74-2.03,1.55-4.03,2.37-6.02,1.49-3.64,3.21-7.18,5.07-10.65,2.03-3.78,4.14-7.49,6.56-11.03,1.94-2.82,4.04-5.52,6.14-8.22,3.75-4.83,7.99-9.19,12.48-13.27,3.35-3.04,6.88-5.91,10.69-8.45,3.58-2.39,7.21-4.69,10.96-6.78,2.35-1.31,4.83-2.4,7.27-3.55,1.88-.89,3.94-1.35,5.74-2.45.36-.22.97-.05,1.47-.05,25.83,0,51.65,0,77.48.02,1.01,0,2.13.09,3.02.52,4.24,2.02,8.73,3.55,12.76,5.99,3.75,2.27,7.55,4.46,11.05,7.16,2.28,1.76,4.56,3.49,6.79,5.31,4.38,3.57,8.24,7.66,12.07,11.76,4.44,4.75,8.05,10.2,11.6,15.66,3.42,5.27,6.06,10.97,8.72,16.64,1.99,4.25,3.39,8.76,4.8,13.25,1.01,3.2,1.74,6.45,2.56,9.7.32,1.28.44,2.6.87,3.87.41,1.18.21,2.57.6,3.76.45,1.35.06,2.85.55,4.02.56,1.33-.02,2.67.46,3.81.61,1.45.3,2.88.45,4.32.9,8.58.34,17.19.49,25.79.01.58,0,1.15,0,2.1-1.18-.45-2.11-.82-3.05-1.16-.94-.35-1.87-.74-2.84-.98-.99-.25-2.15-.12-3-.58-.94-.5-2.11-.06-2.87-.94-2.13.3-4.06-.71-6.06-1.11-2.21-.43-4.56-.37-6.65-1.39-1.65.36-3.17-.49-4.79-.53-.85-.02-1.69-.34-2.54-.47-.86-.13-1.81.27-2.55-.5-.08-.08-.32,0-.49-.01-2.1-.16-4.24-.12-6.28-.57-1.53-.34-3.09-.15-4.54-.5-1.53-.37-3.11-.11-4.54-.51-1.79-.5-3.61-.07-5.3-.49-2.2-.54-4.43-.06-6.54-.51-2.29-.49-4.6-.03-6.79-.49-3.03-.63-6.09.02-9.04-.51-4.03-.72-8.08.06-12.04-.49-4.94-.69-9.87-.32-14.8-.41-5.08-.09-10.16-.02-15.25-.02s-10,.12-14.99-.05c-2.72-.09-5.34.67-8.04.57-2.66-.1-5.39-.38-7.98.07-2.96.52-5.91.01-8.8.48-2.45.39-4.91.11-7.29.52-1.95.33-3.91.11-5.79.48-1.94.38-3.92.13-5.79.51-1.7.35-3.38.26-5.05.47-.93.11-1.82.45-2.8.49-.93.04-1.85-.24-2.85.38-.72.45-2.04-.17-2.92.15-1.28.46-2.6.17-3.8.5-1.28.36-2.6.17-3.79.51-1.04.3-2.12.15-3.04.49-1.04.39-2.12.16-3.04.5-1.04.38-2.1.18-3.05.48-2.77.88-5.77.68-8.43,1.95-4.16.38-8.05,1.82-12,3.01-.44.13-.84.37-1.47.66-.05-.6-.12-1.05-.12-1.51,0-3.42.13-6.84-.03-10.25-.28-5.95.67-11.85.56-17.79Zm217.96,246.61c-3.42,3.52-6.27,5.12-11.67,7.33-2.71,1.11-5.4,2.28-8.22,3.09-2.16.62-4.31,1.26-6.48,1.85-1.72.47-3.48.82-5.19,1.35-.98.3-2.13-.22-2.98.65-2.33-.05-4.55.74-6.81,1.12-2.37.4-4.81.62-7.17,1.31-1.74.51-3.68.38-5.52.58-1.1.12-2.19.33-3.29.49-1.02.14-2.14-.37-3.05.5-.04.04-.16.02-.24,0-2.38-.36-4.69.67-7.04.47-1.82-.15-3.51.56-5.29.54-1.75-.02-3.59-.35-5.23.07-2.79.73-5.55.24-8.31.41-1.41.08-2.84-.07-4.25.04-1.29.1-2.54-.19-3.88.24-1.28.41-2.77.25-4.16.22-7.01-.15-14.01-.75-21.03-.49-2.56-.81-5.24-.12-7.77-.59-2.13-.4-4.21-.28-6.31-.42-1.11-.07-2.12-.63-3.3-.53-1.09.1-2.28.33-3.3-.45-.1-.08-.33-.03-.49,0-2.14.36-4.2-.37-6.28-.6-2.36-.26-4.76-.45-7.08-.94-2.86-.6-5.79-.84-8.61-1.54-1.88-.46-3.8-.9-5.67-1.3-1.83-.39-3.62-1.22-5.56-1.12-2.52-1.26-5.36-1.49-7.96-2.51-3.58-1.41-7.29-2.48-10.66-4.45-1.83-1.07-3.56-2.27-5.33-3.41-.14-.09-.24-.23-.36-.35-1.92-1.87-2.04-3.09-.04-5,2.19-2.08,4.82-3.47,7.51-4.78,3.61-1.76,7.36-3.22,11.19-4.32,2.83-.81,5.71-1.56,8.58-2.26,2.72-.66,5.48-1.25,8.21-1.81,2.23-.45,4.46-1.27,6.81-1.11,1.11-.7,2.42-.21,3.52-.57,1.2-.39,2.4-.23,3.56-.47,2.51-.52,5.05-.73,7.58-1.05,1.77-.22,3.6-.07,5.28-.5,1.88-.48,3.76-.08,5.55-.47,2.6-.57,5.27-.03,7.78-.53,3.45-.69,6.88-.19,10.3-.41,2.68-.17,5.36-.4,8.04-.48,2.75-.08,5.5.09,8.24-.05,2.88-.14,5.69.44,8.54.51,2.91.07,5.88-.33,8.73.12,2.71.42,5.41.04,8.04.47,1.95.32,3.92.11,5.78.51,1.62.35,3.21.3,4.81.43,1.02.08,1.94.65,3.05.52,1.02-.12,2.1-.19,3.04.47,1.98-.38,3.83.62,5.79.53.76-.03,1.52.33,2.29.46.7.11,1.36.17,2.07.41,1.08.36,2.33.33,3.52.53,1.64.27,3.25.59,4.86.95,1.53.33,3.05.65,4.57,1.01,1.59.37,3.2.74,4.81,1.08,2.67.58,5.24,1.44,7.84,2.21,1.77.52,3.49,1.23,5.24,1.82,1.68.57,3.36,1.27,4.87,2.09,3.06,1.65,6.35,3.13,8.48,6.38v1.76Zm12.51-195.95c0,52.65,0,105.31,0,157.96,0,2.28-.37,4.55-.63,6.78-.26,2.2-.71,4.46-1.3,6.66-.78,2.92-1.62,5.83-2.69,8.64-.98,2.59-2.31,5.04-3.5,7.55-.1.21-.34.36-.63.64-2.95-2.95-7.28-5.37-12.46-7.56-2.27-.96-4.52-2.01-6.87-2.71-3.19-.95-6.38-1.95-9.6-2.8-2.48-.65-5.06-.89-7.5-1.78-.99-.36-2.15-.42-3.24-.63-.85-.16-1.71.02-2.56-.48-.63-.37-1.48-.02-2.31-.45-.9-.46-2.14-.21-3.26-.52-1.68-.47-3.51-.39-5.27-.59-.94-.11-1.86-.37-2.79-.48-.94-.11-1.96.21-2.8-.51-.05-.04-.16,0-.25,0-2.26-.17-4.53-.31-6.79-.51-1.1-.1-2.19-.39-3.29-.47-1.16-.08-2.43.27-3.48-.08-2.27-.76-4.58-.07-6.8-.48-4.26-.8-8.58.04-12.79-.54-5.28-.73-10.54-.18-15.8-.4-2-.08-4.11-.41-5.97.1-1.99.54-3.89.25-5.82.37-1.99.12-4.06-.29-5.98.1-2.53.52-5.08.06-7.54.5-2.12.38-4.25.1-6.29.51-1.62.33-3.2.36-4.81.41-.96.03-1.76.69-2.8.54-.84-.12-1.79-.29-2.55.44-.13.12-.48.01-.73.02-1.2.03-2.37,0-3.56.44-1,.37-2.16.05-3.3.47-1.14.42-2.5.09-3.78.53-1.26.43-2.79.12-3.99.63-1.2.52-2.59-.02-3.62.92-2.97-.06-5.74,1.06-8.61,1.6-3.01.56-5.96,1.64-8.92,2.54-2.29.7-4.5,1.62-6.77,2.37-.8.27-1.56.66-2.34.99-2.94,1.23-5.8,2.62-8.37,4.51-.91.67-1.72,1.48-2.59,2.2-.43.36-.9.68-1.39,1.05-.33-.57-.66-1.45-1.25-2.09-2.17-2.34-3.4-5.25-4.9-7.98-1.9-3.45-3.24-7.15-4.51-10.88-.98-2.87-1.5-5.85-2.42-8.74-.48-1.5-.23-3.21-.59-4.77-.54-2.34-.08-4.77-.56-7.03-.56-2.63-.38-5.22-.38-7.81-.04-46.32-.03-92.64-.03-138.96v-2.7c.88.28,1.52.51,2.17.68,3.24.83,6.42,1.84,9.7,2.55,2.46.53,4.95.89,7.37,1.52,2.2.57,4.49.64,6.66,1.39,1.1.38,2.33.05,3.55.46,1.56.52,3.33.39,5.01.6.94.11,1.86.34,2.79.48.86.13,1.82-.32,2.55.49.07.08.32,0,.49.01,2.35.16,4.69.34,7.04.5,1.11.07,2.1.67,3.3.55,1.08-.11,2.28-.35,3.3.44.1.08.32,0,.49.01,2.02.06,4.08-.27,6.04.5,4.03-.27,8,.88,12.04.5,3.4.84,6.9.08,10.28.57,5.44.79,10.91-.12,16.29.52,4.87.57,9.7.29,14.55.39,4.83.1,9.67.09,14.5,0,2.93-.06,5.83-.62,8.79-.5,2.99.12,6.06.39,8.98-.07,3.29-.52,6.58.03,9.79-.48,2.87-.46,5.75-.04,8.54-.52,1.96-.35,3.88-.24,5.81-.41,1.1-.1,2.19-.39,3.29-.47,1.16-.08,2.43.28,3.47-.09,1.54-.54,3.05-.3,4.56-.44,1.02-.1,2.02-.36,3.04-.48,1.02-.12,2.12.25,3.05-.5.1-.08.33,0,.49-.01,2.18-.16,4.36-.3,6.54-.51.86-.08,1.69-.36,2.55-.47.78-.1,1.53-.19,2.32-.42,1.27-.36,2.66-.21,4.03-.53,2.31-.55,4.77-.49,7.05-1.13,1.96-.55,4.11-.25,5.9-1.43,3.35-.06,6.39-1.59,9.66-2.05,1.26-.18,2.44-.92,3.68-1.35.36-.13.77-.08,1.33-.13v2.31Zm-.65-9.31c-2.1.98-4.45,1.33-6.61,2.14-2.12.8-4.46.75-6.47,1.88-2.2-.25-4.13,1.15-6.33,1.05-.59-.03-1.19.33-1.79.46-.61.13-1.2-.01-1.86.37-.93.53-2.12.13-3.26.55-1.46.54-3.16.4-4.76.6-.85.11-1.69.35-2.54.48-.85.14-1.82-.31-2.55.5-.08.08-.32,0-.49.01-2.1.16-4.24.12-6.28.56-1.7.37-3.5.02-5.02.54-1.75.6-3.46-.04-5.06.45-1.78.55-3.6.12-5.29.51-2.2.51-4.44.06-6.54.51-2.62.57-5.26,0-7.79.49-3.44.66-6.91,0-10.29.49-5.52.8-11.07-.1-16.54.53-4.45.51-8.87.28-13.3.38-4.5.1-9,.07-13.5,0-1.93-.03-3.86-.38-5.79-.46-2.08-.08-4.16-.02-6.25-.02s-4.07.33-5.98-.07c-3.44-.72-6.91,0-10.29-.5-2.61-.39-5.25-.06-7.79-.51-2.29-.41-4.58-.07-6.79-.48-2.03-.37-4.09-.1-6.03-.53-1.55-.34-3.04-.28-4.56-.42-1.1-.1-2.12-.62-3.3-.52-1.1.09-2.27.31-3.3-.45-.16-.12-.49,0-.74-.02-2.01-.16-4.08-.12-6.02-.57-1.2-.28-2.44-.13-3.54-.49-1.2-.4-2.41-.21-3.56-.47-2.85-.66-5.78-.89-8.62-1.52-2.29-.51-4.59-.99-6.89-1.43-2.23-.43-4.41-1.04-6.61-1.58-2.76-.67-5.4-1.82-8.09-2.76-.66-.23-1.35-.37-1.96-.7-.88-.47-1.69-1.06-2.79-1.77,3.01-1.27,5.66-2.54,8.42-3.51,2.55-.9,5.23-1.45,7.83-2.22,2.77-.81,5.71-.85,8.44-1.93.98-.39,2.19-.31,3.28-.47,2.52-.37,4.99-1.02,7.56-1.18,1.15-.07,2.43-.13,3.53-.48,1.2-.38,2.45-.13,3.54-.49,1.45-.49,2.87-.34,4.31-.45.94-.07,1.78-.63,2.8-.51.86.1,1.79.2,2.54-.47.05-.04.16-.02.24,0,2.55.39,5-.62,7.54-.54,1.34.04,2.69-.36,4.04-.45,1.33-.08,2.76.29,3.98-.09,2.03-.64,4.08-.12,6.06-.47,3.26-.58,6.59-.05,9.78-.57,3.3-.53,6.55-.18,9.81-.39,3.76-.24,7.51-.63,11.29-.53,3.91.11,7.83.02,11.75.02h11.5c3.83,0,7.67-.06,11.5.02,2.52.05,5.03.38,7.54.46,2.5.08,5.06-.34,7.48.11,2.96.55,5.92,0,8.8.48,2.61.43,5.24.09,7.79.52,2.04.34,4.09.09,6.04.49,1.87.38,3.75.12,5.54.5,1.7.36,3.37.31,5.05.46.93.09,1.81.49,2.79.5.93.01,1.85-.24,2.85.37.73.44,2.03-.15,2.92.15,1.2.41,2.45.16,3.54.51,1.21.39,2.41.2,3.55.47,2.1.51,4.24.6,6.34.98,2.87.52,5.78.93,8.59,1.61,1.79.43,3.64.8,5.43,1.31,1.79.51,3.57,1.08,5.37,1.5,2.95.69,8.24,2.67,10.43,3.8.14.07.24.23.49.48-1.26,1.78-3.38,1.92-5.13,2.73Z"/><path class="cls-2" d="m115.22,79.95h26.65c9.76,0,17.67-7.91,17.67-17.67v-31.24h-1v2.55c0,9.75,0,19.49,0,29.24,0,2.01-.51,3.92-1.36,5.68-1.42,2.92-3.08,5.61-5.91,7.54-2.8,1.91-5.76,3.3-9.1,3.35-8.74.13-17.49.05-26.24.04-1.61,0-3.22.12-4.8-.47-1.66-.62-3.43-1.01-4.89-2.08-3.27-2.39-6.2-5.07-7.59-9.06-.41-1.18-.8-2.34-1-3.55,1,8.81,8.47,15.66,17.55,15.66Z"/><path class="cls-2" d="m106.26,76.89c1.46,1.07,3.22,1.45,4.89,2.08,1.58.59,3.19.47,4.8.47,8.75,0,17.49.09,26.24-.04,3.34-.05,6.3-1.44,9.1-3.35,2.83-1.93,4.49-4.63,5.91-7.54.85-1.76,1.36-3.67,1.36-5.68,0-9.75,0-19.49,0-29.24v-2.55h1v-.09h-62v31.33c0,.68.05,1.35.12,2.01.2,1.22.59,2.38,1,3.55,1.39,3.99,4.32,6.66,7.59,9.06Z"/></g></g></svg>