<?xml version="1.0" encoding="UTF-8"?><svg id="Calque_2" xmlns="http://www.w3.org/2000/svg" viewBox="0 0 276.01 493.69"><defs><style>.cls-1{fill:#f7f5f3;}.cls-2{fill:#ff7a00;}</style></defs><g id="Calque_2-2"><g><path d="m93.14,106.04c12.32,22.52,19.24,49.62,16.6,84.84-10.15,43.54-20.24,86.95-21.21,110.66-1.51,42.25,11.99,86.68,70.08,86.68s75.4-44.31,75.61-86.68c-.57-35.3-20.29-87.6-19.36-111.58-.61-28.77,3.12-56.55,13.85-83.91-41.12,4.82-84.74,6.68-135.57,0Z"/><path class="cls-1" d="m93.42,106.24c.92,1.48,1.96,2.89,2.75,4.41,13.49,24.37,17.84,52.84,16.13,80.42-7,33.79-16.5,70.8-20.43,104.92-2.4,27.95.75,61.58,25.06,79.48,18.76,13.37,46,14.27,67.56,7.88,33.37-10.19,46.07-43.77,46.67-76.01.32-7.19-.38-14.56-1.41-21.67-3.89-27.95-13.37-54.82-17.73-82.81-1.29-8.68-.98-18.57-.83-27.32.76-24.09,5.37-48.27,14.49-70.68l3.4,4.42c-45.08,4.77-90.93,5.03-135.66-3.03h0Zm-.58-.4c22.52,1.72,45.45,2.99,68.06,2.32,22.56-.51,45.04-2.5,67.42-5.35,0,0,3.4,4.42,3.4,4.42-8.3,21.89-12.41,45.18-13.05,68.55-.22,5.01-.12,12.46-.05,17.57.22,5.64,1.11,11.35,2.16,17.12,4.6,24.74,11.99,49.22,15.19,74.37,1.42,10.51,1.58,21.3.19,31.82-5.89,49.17-36.61,76.56-86.69,72.21-42.99-3.45-61.52-35.09-63.63-75.21-1.18-18.03,2.09-36.18,5.39-53.74,4.55-22.73,10.65-48.24,15.94-69.22,2.53-26.97-.68-54.75-12.01-79.53-.99-2.18-1.47-3.28-2.31-5.31h0Z"/></g><g><path d="m90.37,490.57h143.85,0c-5.84-7.01-14.5-11.07-23.63-11.07h-93.9c-9.91,0-19.39,3.99-26.32,11.07h0Z"/><path class="cls-1" d="m90.37,490.22c24.42-2.41,48.98-3.17,73.5-2.57,12.25.45,24.5,1.58,36.75,1.79,10.7.2,21.47-.04,32.16-.56,0,0,1.15-.06,1.15-.06,0,0,.29-.01.29-.01-2.7,5.76-.78,1.57-1.39,2.84l-.05-.05-.09-.1-.38-.39c-5.5-5.66-13.25-8.7-20.97-8.62-1.12-.01-3.31.08-4.51.11-15.23.33-30.73.76-45.94.64-11.87-.1-24.85-.48-36.75-.98-2.52-.08-6.64-.34-9.08-.4-8.75-.08-17.46,3.17-24.21,8.77,0,0-.11.09-.11.09,0,0-.06.04-.06.04-.13-.25.21.62-.31-.55h0Zm0,.7c-.48-1.21-.11-.37-.2-.65,0,0,.05-.06.05-.06l.09-.11.19-.22c6.98-8.57,18.11-12.96,29.03-12.93,6.58-.31,16.36-.67,22.97-.84,18.37-.6,36.75-.36,55.13.08,3.1.09,10.8.21,13.86.36,9.16.41,17.93,5.13,23.52,12.18,0,0,.38.47.38.47l.09.12.05.06c-.59,1.31,1.39-2.84-1.31,2.94-11.17-.57-22.42-.84-33.59-.63-12.25.21-24.5,1.34-36.75,1.79-24.52.6-49.09-.16-73.5-2.57h0Z"/></g><g><path d="m134.23,385.05c-2.11,12.91,6.85,30.83,12.39,36.36-8.3,7.38-8.3,25.82,1.84,32.27,3.35,11.32-2.76,19.1-14.23,25.82h55.23c-10.86-5.54-16.38-15.87-14.25-26.74,11.07-7.38,8.61-28.45.92-32.27,8.3-8.3,11.13-21.92,11.07-36.89l-52.96,1.45Z"/><path class="cls-1" d="m134.46,385.31c.07,9.61,3.75,18.77,8.56,26.93,1.61,2.69,3.52,5.3,5.49,7.28l-.11,3.9c-3.65,3.59-4.94,9.39-4.68,14.47.26,5.33,2.46,10.57,6.39,13.21l1.29,1.72c3.88,13.47-5.26,22.44-16.36,28.07,0,0-.81-2.99-.81-2.99,4.6.23,9.2.39,13.81.48,9.2.16,18.41.04,27.61-.25,4.6-.15,9.2-.36,13.81-.57l-.89,3.69c-11.26-4.91-18.87-16.65-16.47-29.09,0,0,1.35-2.03,1.35-2.03,1.94-1.37,3.4-3.38,4.34-5.74,2.34-5.7,2.02-16.71-3.33-20.54,0,0-.98-6.01-.98-6.01,4.11-4.21,6.61-9.78,8.13-15.52,1.59-6.04,2.24-12.4,2.41-18.7,0,0,3.27,3.16,3.27,3.16-16.96-.05-35.77-.8-52.82-1.47h0Zm-.46-.53c12.78-1.24,26.61-2.63,39.42-3.49,4.54-.3,9.1-.64,13.68-.87,0,0,3.27,3.16,3.27,3.16.36,13.81-1.39,29.19-11.59,39.55,0,0-.98-6.01-.98-6.01,6.97,4,8.48,12.5,8.41,19.72-.25,7.02-3.01,14.51-9.25,18.55,0,0,1.35-2.03,1.35-2.03-2.38,9.78,3.46,19.71,12.03,24.4,0,0-.89,3.69-.89,3.69-4.6-.21-9.2-.42-13.81-.57-9.2-.3-18.41-.41-27.61-.25-4.6.09-9.2.24-13.81.48,0,0-.81-2.99-.81-2.99,8.27-5.31,15.85-13.12,12.1-23.56,0,0,1.29,1.72,1.29,1.72-6.25-3.84-9.06-11.21-9.26-18.13-.13-6.87,1.91-13.98,7.28-18.73,0,0-.11,3.9-.11,3.9-2.49-2.71-4.14-5.68-5.76-8.85-4.27-9.07-7.53-19.7-4.96-29.68h0Z"/></g><polygon class="cls-1" points="0 0 0 8.4 71.93 8.4 94.98 35.96 158.61 363.32 166.82 363.32 104.87 33.59 77.21 .39 0 0"/><path class="cls-2" d="m261.88,63.63c-42.23-58.39-117.97-12.92-115.27-.92l92.49,104.2c8.33-.2,61.86-49.24,22.78-103.28Zm-66.02,27.48c-6.8-5.64-12.99-11.28-18.44-16.92-.64-.66-.7-1.68-.17-2.43,6.54-9.26,15.01-13.48,24.9-13.97,1.16-.06,2.05,1.02,1.8,2.16-2.21,10.26-4.2,20.39-5.76,30.28-.17,1.1-1.48,1.6-2.34.89Zm7.75-.21c2.35-5.87,12.45-30.71,15.99-33.07,5.36.67,24.79,10.05,28.14,18.76-4.78,5.97-36.48,13.65-43.32,15.25-.55.13-1.02-.41-.81-.94Zm42.75,34.19l-8.03,10.32c-.91,1.17-2.66,1.26-3.68.18-9.36-5.66-16.7-14.84-23.6-24.78-.36-.38,0-1,.51-.88l32.3,7.94c3.2.79,4.53,4.61,2.5,7.21Zm10.13-13.66c-.15.94-1.08,1.54-2,1.28l-42.4-11.85c-.38-.11-.37-.65.01-.74,7.25-1.66,39.12-9.04,42.08-10.93,4.98,2,3.11,17.04,2.3,22.23Z"/><g><ellipse cx="161.35" cy="249.83" rx="64.32" ry="8.76"/><path class="cls-1" d="m226.02,249.83c-.24,3.61-12.02,5.55-15.14,6.5-16.2,3.84-32.9,6.01-49.53,5.18-11.08-.47-22.1-1.93-33.08-3.03-5.5-.58-10.99-1.1-16.5-1.86-4.54-.7-9.23-1.23-13.55-3.06-2.37-1.01-4.16-3.44-2.37-5.88.81-1.09,2.09-1.83,3.27-2.44,3.97-1.88,8.2-2.89,12.4-3.78,16.43-3.11,33.17-4.12,49.84-4.12,16.68-.02,33.32,2.06,49.54,5.95,3.34.99,14.83,2.92,15.13,6.55h0Zm-.7,0c-.02-.49-.47-.99-1-1.33-1.67-1.12-3.69-1.62-5.63-2.1-10.56-2.3-21.98-1.69-32.74-1.71-19.08.19-38.26-.1-57.31.92-8.08.52-16.21,1.09-24.12,2.59-1.92.43-3.78.8-5.41,1.8-.04.04-.08.07-.14.1-.03.02.02-.02-.02-.04,0-.04.06-.16,0-.24.05-.07-.09-.3-.07-.2.25.36.61.58.99.84,3.74,2.07,8.08,2.94,12.29,3.8,16.19,3.17,32.83,2.19,49.19,1.4,10.94-.47,21.84-.6,32.81-.54,5.83,0,28.98.1,31.16-5.3h0Z"/></g></g></svg>