<?xml version="1.0" encoding="UTF-8"?><svg id="Calque_2" xmlns="http://www.w3.org/2000/svg" viewBox="0 0 338.92 556.64"><defs><style>.cls-1{fill:#f7f5f3;}.cls-2{fill:#ff7a00;}</style></defs><g id="Calque_2-2"><g><polygon points=".31 138.61 117.31 289.61 146.02 289.61 262.52 138.61 .31 138.61"/><path class="cls-1" d="m.63,138.76c21.06,26.03,70.57,86.32,90.31,111.87,9.64,12.3,18.96,24.81,28.3,37.49,0,0-1.92-.94-1.92-.94,0,0,28.71.71,28.71.71,0,0-1.36.67-1.36.67,10.07-12.31,19.89-24.8,29.65-37.35,17.04-21.75,40.42-53.88,57.1-76.39,9.43-12.8,18.97-25.51,28.57-38.18,0,0,2.54,5.17,2.54,5.17-75.21,1.42-185.62-1.43-261.89-3.05h0Zm-.63-.31c84.96-1.84,177.86-4.43,262.52-3.05,0,0,2.54,5.17,2.54,5.17-16.81,21.7-42.17,52.69-59.6,74.46-19.91,24.79-39.33,49.95-58.08,75.63,0,0-1.36.67-1.36.67l-28.71.71s-1.92-.94-1.92-.94c-15.29-18.7-30.39-37.95-44.91-57.34C47.95,204.05,22.26,168.55,0,138.45h0Z"/></g><g><rect x="122.81" y="290.11" width="17" height="228"/><path class="cls-1" d="m139.57,290.35c-5.68.3-11.2.8-16.75,1.05,0,0,1.3-1.3,1.3-1.3.87,19,1.35,38,1.64,57,.21,18.71.38,38.33-.25,57-1.55,37.99-2.25,75.99-.77,114,0,0-1.92-1.92-1.92-1.92,0,0,17-.52,17-.52,0,0-2.44,2.44-2.44,2.44-.61-18.85-.76-37.62-.97-56.35-.68-56.38,1.06-114.98,3.16-171.4h0Zm.49-.49c2.28,56.52,3.81,114.01,3.16,170.6-.21,19.27-.36,38.5-.97,57.65l-2.44,2.44s-17-.52-17-.52l-1.92-1.92c.61-19,.97-38,.81-57-.1-21.35-1.25-42.77-1.78-64.12-.4-16.21-.22-33.61-.05-49.87.28-19,.77-38,1.64-57,0,0,1.3-1.3,1.3-1.3,5.13.2,12.1.73,17.25,1.05h0Z"/></g><g><path d="m49.81,554.11h163.2l-3.69-3.63c-5.42-5.33-12.41-8.79-19.94-9.87-11.14-1.61-29.29-3.35-35.57-6.5-10-5-14-16-14-16h-17s0,5-13,14c-8.07,5.59-24.24,8.09-35.34,9.19-7.86.78-15.25,4.12-21.05,9.48l-3.61,3.33Z"/><path class="cls-1" d="m50.14,553.98c24.21-.76,59.25-2.28,83-2.4,13.16-.03,26.07.78,39.44,1.21,13.34.44,26.96.31,40.44-.12,0,0-1.01,2.48-1.01,2.48-12.88-13.05-21.25-11.54-37.98-13.51-7.46-1.03-14.93-1.49-22.02-4.57-7.29-3.72-12.61-10.23-15.7-17.67,0,0,3.51,2.46,3.51,2.46-5.67.04-11.33.03-17-.03l3.71-3.71c0,.42-.03.49-.05.65-1.11,5.3-5.54,9.03-9.43,12.3-4.96,4.19-11.35,7.43-17.58,8.89-7.05,1.82-14.18,2.73-21.39,3.25-3.55.25-6.78.31-10.16,1.21-3.26.83-6.45,2.08-9.41,3.81-2.95,1.72-5.52,3.84-8.37,5.77h0Zm-.65.25c7-9.33,16.52-14.41,28.07-15.56,6.8-1.13,13.67-2.46,20.18-4.62,4.98-1.6,8.98-3.5,12.89-6.83,3.23-2.71,6.87-5.56,8.5-9.46.02-.05,0-.04,0-.04,0,0,0,0,0,.05,0,.05,0,0-.02.32l3.71-3.71c5.67-.06,11.33-.07,17-.03l3.51,2.46c.08.22.25.64.41.97,2.39,5.31,6.31,10.33,11.43,13.1,2.66,1.38,6.22,2.14,9.3,2.81,8.68,1.8,17.6,2.84,26.34,4.54,7.42,1.59,14.33,5.43,19.52,10.93,0,0,3.7,3.9,3.7,3.9,0,0-1.01,2.48-1.01,2.48-13.72-.44-27.31-.56-41.17-.12-13.83.43-28.12,1.24-42.16,1.21-23.71-.02-56.28-1.6-80.2-2.4h0Z"/></g><rect class="cls-1" x="191.81" y="61.11" width="6" height="174" transform="translate(38.39 -40.09) rotate(13.02)"/><g><polyline points="338.81 108.11 268.81 116.11 145.81 88.11 83.81 42.11 229.81 .11"/><path class="cls-1" d="m338.85,108.45c-17.33,3.3-34.77,5.93-52.23,8.34-5.82.77-11.63,1.61-17.47,2.3,0,0-1.01-.06-1.01-.06-20.38-4.25-41.27-9.48-61.26-15.07-20.43-5.76-41.21-10.23-61.91-14.74-15.81-11.08-31.87-21.82-47.53-33.11,0,0-15.67-11.27-15.67-11.27,0,0,1.09-6.04,1.09-6.04,36.31-11.16,72.95-21.24,109.82-30.37,48.94-12,49.2-11.55,1.24,4.32-36.09,11.85-72.48,22.79-109.18,32.63,0,0,1.09-6.04,1.09-6.04,0,0,15.33,11.73,15.33,11.73,14.49,11.25,32.47,25.34,44.95,35.65,20.38,5.23,40.91,9.76,61.61,13.51,20.42,3.62,41.57,7.93,61.74,12.93,0,0-1.01-.06-1.01-.06,5.84-.64,11.69-1.13,17.53-1.7,11.7-1.08,23.41-2.01,35.14-2.75,5.87-.38,11.74-.69,17.62-.91,0,0,.08.7.08.7h0Z"/></g><g><line class="cls-1" x1="229.81" y1=".11" x2="338.81" y2="108.11"/><path d="m229.92,0c9.79,8.26,19.11,17.03,28.02,26.22,3.89,4.16,9.18,10.03,13.09,14.04,8.92,9.17,18.74,17.42,27.9,26.34,13.93,13.21,27.34,26.91,39.99,41.4,0,0-.21.21-.21.21-14.6-12.51-28.42-25.79-41.76-39.6-9.01-9.07-17.35-18.82-26.6-27.66-9.23-8.57-19.18-17.27-27.73-26.52-4.42-4.62-8.75-9.34-12.91-14.22l.21-.21h0Z"/></g><g><polyline points="229.81 .11 206.25 101.86 268.81 116.11 229.81 .11"/><path class="cls-1" d="m230.16.19c-1.54,12.91-3.91,25.97-6.45,38.71-2.56,12.81-5.31,25.57-8.97,38.13-2.4,8.38-5,16.71-7.26,25.12,0,0-.94-1.51-.94-1.51,5.17,1.36,10.37,2.62,15.6,3.72,15.65,3.51,31.61,5.75,47.34,8.83,0,0-3.49,3.86-3.49,3.86-10.65-28.7-20.58-57.66-28.78-87.16-10.8-39.06-10.45-39.72,4.72-1.59,11.29,28.46,20.87,57.54,29.72,86.84,0,0-3.49,3.86-3.49,3.86-14.23-3.7-28.31-8.11-42.6-11.61-6.46-1.57-13.06-3.08-19.58-4.32,0,0-.94-1.51-.94-1.51,3.21-17.11,5.58-34.43,9.99-51.29,1.47-6.12,3.29-12.84,4.9-18.97,2.91-10.44,5.94-21.05,9.55-31.29,0,0,.68.16.68.16h0Z"/></g><line class="cls-2" x1="145.81" y1="88.11" x2="229.81" y2=".11"/><ellipse class="cls-2" cx="94.81" cy="183.11" rx="40" ry="31" transform="translate(-99.11 113.03) rotate(-42.76)"/><g><ellipse cx="131.4" cy="229.47" rx="60.83" ry="6.67"/><path class="cls-1" d="m192.58,229.47c-.13,2.89-12.03,4.46-14.68,5.2-15.26,3.23-30.91,5.24-46.5,4.4-10.39-.46-20.72-1.85-31.04-2.72-6.45-.59-12.94-1.03-19.39-1.82-3.38-.45-6.76-.76-9.98-2.1-1.1-.51-2.31-1.47-2.33-2.95-.11-4.63,12.43-6.31,16-7.1,20.62-3.2,41.54-3.99,62.34-2.74,10.39.68,20.72,2.54,30.92,4.59,2.87.78,14.46,2.33,14.67,5.25h0Zm-.7,0c-4.4-5.59-36.82-2.85-45.09-3.07-22.78.39-46.33-.37-68.93,2.33-1.89.31-3.86.57-5.51,1.38-.02,0-.02,0,.03-.09.03-.07.14-.31.11-.56,0-.25-.12-.47-.16-.53-.06-.08-.07-.06-.06-.04.05.07.22.2.41.33,3.79,1.99,8.26,2.62,12.49,3.37,15.28,2.55,30.87,1.42,46.24.62,10.28-.46,20.52-.52,30.82-.23,8.94.09,18.13.59,26.84-1.78.97-.33,2.53-.81,2.82-1.74h0Z"/></g></g></svg>