<?xml version="1.0" encoding="UTF-8"?><svg id="Calque_2" xmlns="http://www.w3.org/2000/svg" viewBox="0 0 180.86 519"><defs><style>.cls-1{fill:#f7f5f3;}.cls-2{fill:#ff7a00;}</style></defs><g id="Calque_8"><g><g><path d="m3.72,149.39h173.96v341.96c0,8.73-6.2,16.26-14.78,17.87-48.13,9.03-96.27,9.03-144.4,0-8.58-1.61-14.78-9.14-14.78-17.87V149.39Z"/><path class="cls-1" d="m3.47,149.15c41.78-.71,88.64-2.12,130.21-2.41,14.65-.13,29.32-.33,44-.35,0,0,3.01,3.01,3.01,3.01.96,90.47-2.49,184.3-1.89,274.83,0,20.02.56,48.93.61,68.86-.54,8.25-6.71,15.83-14.77,17.89-1.11.33-4.03.83-5.21,1.07-31.7,6.18-64.18,8.26-96.42,6.16-13.82-.96-27.61-2.55-41.26-4.93-1.17-.26-4.11-.63-5.33-.99-8.72-2.1-15.46-10.11-16.2-19.04-.28-12.8-.19-28.97-.23-41.85-.07-98.3,1.62-203.84,3.47-302.24h0Zm.5.49c1.91,103.2,3.64,212.94,3.47,316.01,0,6.1-.11,17.81-.12,23.86,0,0,0,1.7,0,1.7-.2,7.07,5.27,13.68,12.3,14.71,41.3,7.95,83.83,9.11,125.55,3.81,5.61-.72,11.31-1.6,16.89-2.52,7.24-.96,13.12-7.17,13.78-14.44.62-29.73.75-66.23.81-96.03-.11-81.24-2.83-166.17-1.96-247.35,0,0,3.01,3.01,3.01,3.01-56.71-.28-116.81-1.49-173.72-2.76h0Z"/></g><g><polygon points="90.7 293.14 76.45 307.63 45.98 271.27 62.69 265.37 90.7 293.14"/><path class="cls-1" d="m91.05,293.14c-2.98,4.9-7.4,11.08-12.46,16.6,0,0-4.45-.18-4.45-.18-5.7-5.77-9.55-12.55-13.94-19.26-4.49-6.6-10.37-11.98-16.18-17.39,0,0,1.11-4.06,1.11-4.06,5.34-2.57,10.86-4.7,16.34-6.93,0,0,3.79.85,3.79.85,9.69,8.97,18.36,19.66,25.79,30.37h0Zm-.7,0c-10.69-8.09-21.18-15.49-30.23-25.18,0,0,3.79.85,3.79.85-5.67,1.71-11.3,3.52-17.07,4.87,0,0,1.11-4.06,1.11-4.06,4.31,6.67,8.58,13.4,14.29,18.97,5.84,5.49,11.84,10.48,16.52,17.1,0,0-4.45-.18-4.45-.18,4.44-4.14,9.53-7.62,16.05-12.38h0Z"/></g><g><polygon points="33.96 332.69 76.45 307.63 45.98 271.27 11.58 293.87 33.96 332.69"/><path class="cls-1" d="m34.05,332.36c13.44-9.9,26.14-19.75,41.05-27.01,0,0-.69,3.99-.69,3.99-4.55-6.48-8.87-13.17-14.01-19.21-5.06-6.1-10.66-11.72-16.24-17.34,0,0,3.11.46,3.11.46-5.38,4.28-11.01,8.22-16.62,12.18-4.93,3.5-11.97,8.39-17.03,11.56,0,0,1.18-4.97,1.18-4.97,7.06,12.75,13.23,26.97,19.25,40.34h0Zm-.18.68c-7.73-10.18-15.57-21.29-22.43-32.24-1.06-1.67-2.08-3.36-3.09-5.06,0,0,1.18-4.97,1.18-4.97,2.83-1.94,5.71-3.8,8.61-5.64,6.93-4.22,15.02-9.38,22.03-13.33,1.49-.86,3-1.68,4.51-2.5l3.11.46c2.3,3.23,4.55,6.5,6.91,9.69,6.91,9.72,15.26,18.21,23.78,26.49,0,0-.69,3.99-.69,3.99-3.49,2.48-7.16,4.81-10.91,6.95-10.62,6.01-21.94,11.58-33.01,16.17h0Z"/></g><g><polygon points="130.5 292.89 147.21 337.12 101.02 349.89 84.88 307.63 130.5 292.89"/><path class="cls-1" d="m130.66,292.57c5.52,10.1,10.65,21.02,15.04,31.87,1.57,3.81,3,7.72,4.23,11.64l-1.95,3.83c-11.77,2.32-23.71,4.04-35.1,7.95-3.81,1.2-7.58,2.57-11.34,3.94,0,0-2.4-1.21-2.4-1.21-5-10.17-9.34-20.63-13.65-31.11-1.46-3.48-2.8-7-4.13-10.53,0,0,2.35-4.91,2.35-4.91,15.34-4.74,31.27-8.48,46.93-11.49h0Zm-.3.63c-14.4,6.3-29.52,13-44.32,18,0,0,2.35-4.91,2.35-4.91,1.36,3.52,2.71,7.04,3.94,10.6,3.77,10.68,7.51,21.37,10.56,32.29,0,0-2.4-1.21-2.4-1.21,7.87-1.48,15.68-3.18,23.33-5.54,7.66-2.31,15.06-5.52,22.62-8.12,0,0-1.95,3.83-1.95,3.83-6.32-14.54-10.1-29.48-14.14-44.94h0Z"/></g><g><polygon points="150.16 288.96 164.9 324.34 147.21 337.12 130.5 292.89 150.16 288.96"/><path class="cls-1" d="m150.33,288.65c7.1,10.42,13.43,22.46,16.55,34.87,0,0-.72,2.56-.72,2.56-6.54,3.29-12.61,7.37-18.06,12.27,0,0-2.31-.69-2.31-.69-7.37-13.97-13.89-28.44-18.22-43.66,0,0,2.32-4.18,2.32-4.18,6.9-.87,13.65-1.22,20.44-1.17h0Zm-.33.62c-5.26,2-13.67,5.19-18.88,6.7,0,0,2.32-4.18,2.32-4.18,6.81,14.28,11.49,29.45,15.2,44.8,0,0-2.31-.69-2.31-.69,6.37-3.63,12.15-8.1,17.33-13.28,0,0-.72,2.56-.72,2.56-6.91-11.05-9.81-23.21-12.93-35.9h0Z"/></g><g><polygon points="137.99 363.19 140.33 409.85 94.14 407.88 90.7 361.18 137.99 363.19"/><path class="cls-1" d="m138.24,362.94c2.18,11.18,3.68,22.99,4.54,34.54.32,4.06.5,8.16.47,12.22,0,0-3.04,3.07-3.04,3.07-7.67-.78-15.33-2.19-23.02-2.77-7.7-.59-15.41-.56-23.13-.25,0,0-1.78-1.73-1.78-1.73-.58-3.87-1.24-7.73-1.76-11.61-1.47-11.62-2.74-23.27-3.55-34.96,0,0,3.9-4.02,3.9-4.02,4.15.24,8.3.53,12.41.92,11.57,1.07,23.63,2.64,34.97,4.59h0Zm-.49.5c-12.11.75-23.94,1.43-35.97,1.57-3.77.06-7.5.01-11.24-.09l3.9-4.02c1.15,15.58,1.79,31.22,1.57,46.84,0,0-1.78-1.73-1.78-1.73,3.84.47,7.67.9,11.52,1.19,11.56,1.12,23.15.07,34.72-.28,0,0-3.04,3.07-3.04,3.07-1.52-15.59-.6-30.79.33-46.55h0Z"/></g><path class="cls-1" d="m4.03,475.88c1.86,7.86,34.51,8.93,41.99,9.15,26.39.29,63.39,2.86,89.39,1.1,9.3-.76,34.36-3.38,40.25-9.94.11-.2.09-.29.07-.31-.02-.02-.04-.08-.17-.25-1.97-1.9-4.91-2.55-7.58-3.34-3.48-.89-7.1-1.53-10.73-2.09-7.28-1.09-14.65-1.84-22.05-2.4-25.86-1.81-52.08-1.58-78.01-1.22-14.83.4-29.95.18-44.4,3.92-2.63.77-5.34,1.62-7.51,3.31-.66.57-1.26,1.28-1.26,2.07h0Zm-.7,0c.31-5.23,15.66-8.11,20.06-9.38,29.36-7.03,59.78-8.69,89.87-7.09,18.86,1.27,38,2.45,56.13,8.32,4.81,1.55,14.55,6.12,8.06,11.88-5.79,3.87-12.84,4.56-19.47,5.89-22.34,3.22-44.75,5.6-67.32,6.57-22.57.81-45.27-1.68-67.26-6.86-4.56-1.31-19.74-4.14-20.07-9.33h0Z"/><g><polygon points="156.42 363.19 159.99 402.97 140.33 409.85 137.99 363.19 156.42 363.19"/><path class="cls-1" d="m156.66,362.93c3.8,12.57,6.19,26.58,5.17,39.87,0,0-1.23,1.91-1.23,1.91-6.89,1.3-13.43,3.64-19.72,6.7,0,0-2.21-1.49-2.21-1.49-2.75-15.36-4.32-30.97-3.7-46.59,0,0,3.01-3.17,3.01-3.17,6.26.46,12.87,1.55,18.67,2.76h0Zm-.47.52c-5.08.85-13.29,2.28-18.2,2.76,0,0,3.01-3.17,3.01-3.17,2.19,15.47,2.18,31.16.99,46.72,0,0-2.21-1.48-2.21-1.48,6.83-1.53,13.4-3.77,19.59-7.06,0,0-1.23,1.91-1.23,1.91-3.68-13.13-2.8-26.05-1.96-39.68h0Z"/></g><g><polygon points="168.84 436.39 157.04 471.77 111.83 467.84 125.59 418.69 168.84 436.39"/><path class="cls-1" d="m169.15,436.24c-2.14,12.24-5.18,24.54-9.12,36.52,0,0-3.26,2.14-3.26,2.14-7.56-.59-15.01-2.19-22.47-3.51-7.47-1.35-15.01-1.98-22.58-2.21,0,0-1.19-1.72-1.19-1.72,3.22-16.73,6.79-33.4,11.46-49.79,0,0,5.04-2.46,5.04-2.46,3.79,1.58,7.55,3.26,11.25,4.99,10.47,4.91,20.97,10.35,30.89,16.03h0Zm-.64.29c-15.09-4.4-29.83-8.62-44.35-14.36,0,0,5.04-2.46,5.04-2.46-4.52,16.43-10.13,32.53-16.06,48.5,0,0-1.19-1.72-1.19-1.72,3.75.53,7.51,1,11.28,1.29,11.33,1.01,22.77-.23,34.09.86,0,0-3.26,2.14-3.26,2.14,3.92-11.68,9.12-22.91,14.46-34.24h0Z"/></g><g><polygon points="104.95 416.73 125.59 418.69 111.83 467.84 84.88 455.55 104.95 416.73"/><path class="cls-1" d="m104.78,416.42c6.66-.78,14.1-.92,21.08-.59,0,0,2.5,3.64,2.5,3.64-.96,4.15-1.94,8.29-3.25,12.34-2.64,8.08-6.77,15.75-8.83,24.03-1.13,4.1-1.98,8.28-2.69,12.5,0,0-2.53,1.18-2.53,1.18l-7.06-2.37c-6.99-2.48-13.83-5.37-20.67-8.21,0,0-1.76-5.08-1.76-5.08,6.58-13.19,14.43-25.81,23.2-37.42h0Zm.34.61c-4.84,13.88-10.04,27.47-16.94,40.22,0,0-1.76-5.08-1.76-5.08,8.74,4.3,17.83,8.9,26.17,14,0,0-2.53,1.18-2.53,1.18,1.59-3.97,3.03-7.98,4.19-12.08,2.54-8.14,3-16.84,4.93-25.12.99-4.14,2.3-8.19,3.63-12.23,0,0,2.5,3.64,2.5,3.64-6.85-1.05-13.16-2.63-20.2-4.53h0Z"/></g><g><polygon points="93.16 429.51 76.45 442.28 55.81 398.05 76.45 395.85 93.16 429.51"/><path class="cls-1" d="m93.5,429.58c-4.46,5.43-9.73,10.56-15.22,15.09,0,0-4.57-1.12-4.57-1.12-4.07-7.15-6.16-15.11-8.77-22.84-1.4-3.83-3.16-7.5-5.13-11.07-1.97-3.57-4.25-6.99-6.36-10.5,0,0,2.08-3.68,2.08-3.68,1.7-.35,3.4-.7,5.11-1,4.98-.76,10.44-1.71,15.41-2.34,0,0,3.74,2.05,3.74,2.05,5.79,11.33,10.34,23.35,13.71,35.39h0Zm-.68-.16c-7.22-10.4-14.36-20.7-19.71-31.91,0,0,3.74,2.05,3.74,2.05-6.79.51-13.94,1.01-20.76,1.07,0,0,2.08-3.68,2.08-3.68,2.54,7.76,5,15.58,9.15,22.66,4.25,6.96,9.01,13.68,11.87,21.39,0,0-4.57-1.12-4.57-1.12,5.58-3.91,12.09-7.27,18.2-10.46h0Z"/></g><g><polygon points="31.24 458.99 16.85 416.73 55.81 398.05 76.45 442.28 31.24 458.99"/><path class="cls-1" d="m31.09,459.31c-4.89-9.69-9.46-20.12-13.33-30.48-1.37-3.66-2.67-7.38-3.76-11.13,0,0,1.55-3.68,1.55-3.68,6.65-2.79,13.57-5.02,20.24-7.76,6.66-2.76,13.07-6.05,19.35-9.61,0,0,2.09.75,2.09.75l6.05,10.64c3.93,6.99,7.67,14.52,11.27,21.67,1.82,3.64,3.63,7.28,5.31,10.99l-2.1,5.11c-15.18,5.47-31.08,9.81-46.66,13.5h0Zm.3-.63c14.17-6.86,29.11-14.37,43.76-19.91,0,0-2.1,5.11-2.1,5.11-6.76-14.51-13.2-30.05-18.65-45.16,0,0,2.09.75,2.09.75-6.71,2.67-13.29,5.6-19.61,9.07-6.32,3.48-12.39,7.48-18.73,10.91,0,0,1.55-3.68,1.55-3.68,5.33,13.98,8.36,28.19,11.7,42.92h0Z"/></g><g><ellipse cx="90.7" cy="149.88" rx="86.98" ry="13.27"/><path class="cls-1" d="m4.07,149.88c1.86,7.86,34.51,8.93,41.99,9.15,26.39.29,63.39,2.86,89.39,1.1,9.3-.76,34.36-3.38,40.25-9.94.11-.2.09-.29.07-.31-.02-.03-.04-.08-.17-.25-1.97-1.9-4.91-2.55-7.58-3.34-3.48-.89-7.1-1.53-10.73-2.09-7.28-1.09-14.65-1.84-22.05-2.4-25.86-1.81-52.08-1.58-78.01-1.22-14.83.4-29.95.18-44.4,3.92-2.63.77-5.34,1.62-7.51,3.31-.66.57-1.26,1.28-1.26,2.07h0Zm-.7,0c.31-5.23,15.66-8.11,20.06-9.38,29.36-7.03,59.78-8.69,89.87-7.09,18.86,1.27,38,2.45,56.13,8.32,4.81,1.55,14.55,6.12,8.06,11.88-5.79,3.87-12.84,4.56-19.47,5.89-22.34,3.22-44.75,5.6-67.32,6.57-22.57.81-45.27-1.68-67.26-6.86-4.56-1.31-19.74-4.14-20.07-9.33h0Z"/></g><polygon class="cls-2" points="164.9 6.56 80.38 478.65 68.34 475.57 153.11 0 164.9 6.56"/><path class="cls-1" d="m4.03,236.58c2.38,6.65,35.1,7.04,42.27,7.14,14.77.15,29.49.36,44.25.84,25.66.82,51.98,2.02,77.07-4.48,2.68-.75,6.38-1.97,7.88-3.5-.02.2.04.22-.12.08-2.25-1.6-5.24-2.07-7.98-2.7-10.75-1.98-21.74-2.75-32.69-3.44-25.66-1.36-51.62-1.12-77.34-1.05-14.53.18-29.86-.24-44.13,2.67-2.65.61-5.38,1.26-7.73,2.65-.73.45-1.46,1.09-1.49,1.8h0Zm-.7,0c.26-4.47,16.61-6.92,20.56-7.95,36.56-7.59,74.22-8.1,111.31-4.71,7.43.69,14.86,1.54,22.26,2.88,6.59,1.35,13.48,2.43,19.4,5.96,1.2.88,2.42,1.91,2.45,3.82-.08,6.1-17.37,7.31-22.1,8.18-22.19,2.45-44.36,4.68-66.68,5.62-22.33.83-44.74-1.49-66.64-5.91-4.17-1.07-20.24-3.43-20.57-7.89h0Z"/><g><polygon points="102 356.77 89.22 393.14 45.98 389.27 61.7 341.05 102 356.77"/><path class="cls-1" d="m102.32,356.63c-2.39,12.54-5.78,25.41-10.14,37.55,0,0-3.24,2.08-3.24,2.08-3.6-.37-7.18-.96-10.75-1.61-10.66-2.21-21.43-3.83-32.34-3.94,0,0-1.25-1.9-1.25-1.9,1.04-4.1,1.97-8.25,2.94-12.38,3.07-12.31,6.61-24.52,10.62-36.55,0,0,4.89-2.31,4.89-2.31,1.77.72,3.54,1.45,5.28,2.22,11.44,4.97,23.18,10.85,33.98,16.83h0Zm-.64.29c-10.17-2.76-21.78-5.87-31.68-9.08-3.26-1.03-6.46-2.14-9.65-3.32,0,0,4.89-2.31,4.89-2.31-5.07,16.16-11.25,31.94-17.89,47.51,0,0-1.25-1.89-1.25-1.89,3.58.57,7.17,1.02,10.78,1.36,10.83,1.17,21.78.02,32.62.83,0,0-3.24,2.08-3.24,2.08,4.17-12.21,9.67-23.48,15.41-35.18h0Z"/></g><g><polygon points="38.35 337.12 61.7 341.05 45.98 389.27 21.41 378.4 38.35 337.12"/><path class="cls-1" d="m38.18,336.81c7.95-.27,15.98.22,24.02,1.27,0,0,2.36,3.9,2.36,3.9-2.11,8.25-5.63,15.98-9.26,23.65-3.49,7.77-5.66,15.95-7.36,24.27,0,0-2.81,1.25-2.81,1.25-8.58-2.65-16.9-6.04-25.23-9.39,0,0-1.92-4.78-1.92-4.78,5.39-13.91,12.43-27.61,20.19-40.18h0Zm.34.61c-3.85,14.6-7.7,28.67-13.7,42.38,0,0-1.92-4.78-1.92-4.78,6.05,2.94,12.12,5.83,18.04,9.03,1.98,1.07,3.92,2.2,5.88,3.32l-2.81,1.25c3.54-7.73,6.61-15.61,8.37-23.94.9-4.15,1.59-8.37,2.61-12.49.99-4.12,2.41-8.11,3.85-12.08l2.36,3.9c-7.38-1.53-15.39-4.15-22.68-6.59h0Z"/></g></g></g></svg>