<?xml version="1.0" encoding="UTF-8"?><svg id="Calque_2" xmlns="http://www.w3.org/2000/svg" viewBox="0 0 308.85 474.53"><defs><style>.cls-1,.cls-2{fill:#f7f5f3;}.cls-3{fill:#ff7a00;}.cls-2{stroke:#000;stroke-miterlimit:10;stroke-width:3px;}</style></defs><g id="Calque_2-2"><g><path d="m4.46,130.15l15.11,324.23c.19,4.09,2.95,7.64,6.89,8.78,48.44,14.12,98.02,13.48,148.6-.12,4.02-1.08,6.89-4.64,7.11-8.8l16.78-324.09c-58.74-10.48-122.94-11.57-194.48,0Z"/><path class="cls-1" d="m4.73,130.37c5.2,75.29,10.1,156.24,13.57,231.65,1.02,23.84,2.35,67.07,3.07,91.03-.22,4.45,2.36,7.98,6.8,8.88,0,0,3.07.89,3.07.89,3.5,1.07,8.75,2.4,12.37,3.28,42.7,10.07,87.79,7.6,129.86-4.32,0,0,.77-.21.77-.21,0,0,.38-.1.38-.1,3.11-.87,5.51-3.75,5.71-6.98.02-.34.07-1.16.07-1.53,0,0,.06-1.61.06-1.61l.49-12.86c3.61-98.54,8.76-210.17,14.53-308.51,0,0,2.82,3.55,2.82,3.55-63.76-12.04-129.39-11.53-193.6-3.15h0Zm-.54-.44c64.24-12.41,130.76-14.16,195.35-3.15,0,0,2.82,3.55,2.82,3.55-1.55,34.28-3.17,68.56-5.03,102.83-3.79,65-8.63,154.15-13.21,218.38,0,0-.1,1.61-.1,1.61l-.05.8c-.19,5.53-4.22,10.02-9.66,10.95-33.4,8.37-68.22,11.73-102.54,8.33-11.73-1.21-23.57-3.12-35.07-5.79-3.08-.6-6.35-1.64-9.42-2.35-4.97-.85-9.12-5.09-9.52-10.19-1.59-25.03-4.33-68.86-5.58-93.83-3.53-75.17-6.24-155.96-7.99-231.13h0Z"/></g><rect class="cls-1" x="53.3" y="59.65" width="9" height="343" transform="translate(-69.25 29.58) rotate(-18.18)"/><rect class="cls-1" x="152.5" y="36.68" width="5.73" height="223.59" transform="translate(47.78 -37.56) rotate(16.26)"/><g><polygon points="41.51 39.65 94.51 90.65 163.05 111.88 231.3 126.65 307.69 118.77 196.3 3.65 41.51 39.65"/><path class="cls-1" d="m41.85,39.74c17.84,16.25,36.95,32.57,54.51,48.98,0,0-1.06-.63-1.06-.63,22.34,6.57,46.58,13.76,68.65,20.9,8.47,1.91,24.16,5.72,33.7,8.08,9.25,2.36,25.93,6.26,33.51,8.24,25.41-2.15,51.07-4.94,76.36-8.16,0,0-1,2.75-1,2.75-17.03-16.61-40.37-39.82-56.83-56.46-16.67-16.74-39.87-40.47-56.09-57.18,0,0,3.54,1.04,3.54,1.04-50.41,11.66-104.53,21.85-155.3,32.44h0Zm-.68-.19C91.66,26.48,144.7,11.83,195.45,0c0,0,3.54,1.04,3.54,1.04,26.73,27.7,56.48,58.97,82.7,87.16,0,0,27.17,29.44,27.17,29.44,0,0-1,2.75-1,2.75-25.41,2.01-51.11,4.51-76.42,7.6-10.03-1.84-24.53-4.68-34.73-6.53-10.24-2.01-24.5-4.51-34.54-6.69-22.22-6.56-46.33-14.38-68.44-21.56,0,0-1.06-.63-1.06-.63-17.25-17.02-34.59-35.72-51.48-53.02h0Z"/></g><g><polyline points="94.51 90.65 196.3 3.65 168.67 113.1"/><path class="cls-1" d="m94.28,90.38c15.23-16.37,31.67-31.62,49.41-45.24,4.46-3.37,9.02-6.62,13.46-10.02,12.98-9.66,25.85-22.11,37.49-33.43,0,0,4.15,2.57,4.15,2.57-5.56,27.65-12.2,55.18-20.66,82.1-11.44,35.67-12.03,35.92-5.1-1.29,5.34-27.71,12.56-55.09,20.79-82.07,0,0,4.15,2.57,4.15,2.57-13.02,9.77-27.28,20.48-38.86,31.82-4.04,3.86-7.97,7.86-11.99,11.73-12.05,11.66-25.21,22.05-38.61,32.11-4.48,3.34-9.05,6.58-13.77,9.65,0,0-.45-.53-.45-.53h0Z"/></g><g><line class="cls-1" x1="196.3" y1="3.65" x2="231.3" y2="126.65"/><path d="m196.44,3.61c3.91,9.95,7.12,20.12,9.81,30.45,1.28,5.18,2.26,10.44,3.64,15.58,2.68,10.32,6.63,20.28,9.65,30.5,4.78,15.28,8.88,30.72,11.91,46.47,0,0-.29.08-.29.08-5.72-14.99-10.36-30.27-14.34-45.78-2.82-10.28-4.7-20.82-7.85-31-3.31-10.13-7.02-20.15-9.4-30.57-1.28-5.18-2.49-10.37-3.4-15.65l.29-.08h0Z"/></g><g><rect class="cls-1" x="100.06" y="215.85" width="50.7" height="40.06" transform="translate(-137.93 190.93) rotate(-52.31)"/><path d="m125.79,268.33c-11.34-7.78-22.73-15.87-33.59-24.41,8.03-10.31,16.97-20.09,24.72-30.62,2.7-3.58,5.31-7.25,7.95-10.88l.69.49c11.31,8.06,22.42,16.4,33.44,24.85-10.59,13.88-21.91,27.31-33.21,40.56h0Zm-.04-.3c9.53-13.52,19.62-27.91,29.75-40.95,0,0,.29,2.24.29,2.24-5.28-4.08-10.47-8.29-15.72-12.42-5.22-4.16-10.39-8.4-15.51-12.68,0,0,1.15-.15,1.15-.15-5.39,6.51-10.72,13.07-15.72,19.89-3.62,4.92-7.48,10.48-11.08,15.46-1.26,1.7-2.49,3.41-3.79,5.08l-.24-1.87c10.23,7.81,21.06,16.99,30.87,25.4h0Z"/></g><polygon class="cls-3" points="146 274.15 125.77 268.19 156.76 228.07 168.75 239.75 146 274.15"/><polygon class="cls-3" points="40.3 259.65 65.3 315.65 101.69 293.64 81.3 250.65 40.3 259.65"/><g><polygon class="cls-1" points="30.3 323.65 65.3 315.65 40.3 259.65 16.3 276.65 30.3 323.65"/><path d="m30.37,323.52c10.97-3.18,23.52-6.61,34.62-9.18,0,0-.93,1.86-.93,1.86-4.22-9.31-7.65-18.97-11.71-28.35-3.44-8.21-9.19-19.61-13.11-27.73,0,0,1.72.47,1.72.47-7.86,5.87-15.77,11.66-23.74,17.37,0,0,.61-1.76.61-1.76,1.17,3.82,2.24,7.67,3.32,11.52,3.14,11.34,6.39,24.36,9.22,35.81h0Zm-.15.26c-5.46-15.4-10.82-30.97-15.46-46.67,0,0-.32-1.1-.32-1.1,8.71-6.15,17.53-12.16,26.39-18.1,5.68,14.27,12.08,29.76,19.11,43.34,2.52,5.07,5.01,10.17,7.25,15.37,0,0-1.59.35-1.59.35-11.55,2.58-23.78,4.93-35.38,6.82h0Z"/></g><g><ellipse cx="101.08" cy="426.31" rx="83" ry="9.5"/><path class="cls-1" d="m184.43,426.31c-.25,3.98-16.23,6.1-19.86,7.02-20.9,4.01-42.22,6.22-63.49,5.39-21.26-.94-42.37-3.07-63.53-5.11-5.37-.67-10.69-1.25-15.93-2.77-1.78-.6-3.86-1.22-5-2.99-1.86-3.32,2.31-5.62,4.84-6.54,5.15-1.96,10.52-3,15.87-3.93,14.08-2.3,28.26-3.25,42.47-3.93,15.93-.69,31.94-.52,47.85.63,12.36,1,24.75,2.86,36.92,5.13,3.88.97,19.55,3.08,19.85,7.08h0Zm-.7,0c-2.62-5.83-33.71-5.87-40.5-5.85-27.75.16-56.6-.26-84.23.98-7,.35-13.98.84-20.91,1.52-3.46.36-6.91.76-10.29,1.33-2.65.53-5.49.92-7.75,2.3-.07.05-.11.09-.09.05-.01-.02.07-.17.04-.33.01-.16-.09-.3-.09-.3-.03-.03,0,.03.06.1.72.7,1.74,1.14,2.77,1.56,4.82,1.84,10.01,2.77,15.13,3.6,20.89,3.34,42.17,2.41,63.21,1.62,14.06-.47,28.08-.63,42.16-.63,7.03-.03,37.82-.07,40.49-5.95h0Z"/></g><polygon class="cls-3" points="147.45 362.1 125.52 411.24 93.58 391.92 111.48 354.2 147.45 362.1"/><polygon class="cls-2" points="156.23 418.26 125.52 411.24 147.45 362.1 168.51 377.02 156.23 418.26"/></g></svg>