<?xml version="1.0" encoding="UTF-8"?><svg id="Calque_2" xmlns="http://www.w3.org/2000/svg" viewBox="0 0 314.9 451"><defs><style>.cls-1{fill:#f7f5f3;}.cls-2{fill:#ff7a00;}</style></defs><g id="Calque_2-2"><g><path d="m.49,68.85h277.35c4.3,29.91-10.59,54.68-44.68,74.32-5.33,3.07-11.39,4.68-17.55,4.68H64.05c-6.9,0-13.68-1.83-19.65-5.29C8.55,121.78.18,96.09.49,68.85Z"/><path class="cls-1" d="m.24,68.6c57.05-1.88,115.36-3.21,172.82-2.35,34.93.73,69.97,1.9,104.77,1.48,0,0,1.1.96,1.1.96,1.09,7.87,1.15,15.89-.52,23.69-4.88,24.02-24.23,41.66-44.53,53.69-5.51,3.14-11.84,4.8-18.19,4.89,0,0-5.85.06-5.85.06-45.95.46-94.32.88-140.24.14,0,0-5.87-.08-5.87-.08-7.36-.13-14.67-2.24-20.94-6.07C13.61,127.25-2.18,103.59.24,68.6H.24Zm.49.5c.43,5.51.86,11.67,2.02,17.04,4.86,25.16,21.32,41.67,42.99,53.82,5.5,3.07,11.77,4.68,18.05,4.64,0,0,5.82-.07,5.82-.07,7.79-.11,15.58-.21,23.37-.25,21.72-.22,48.51-.23,70.12-.02,11.61.09,35.12.32,46.75.41,2.83,0,8.28.25,11.15-.32,3.52-.54,6.95-1.68,10.11-3.34,27.55-14.78,50.52-38.43,45.62-72,0,0,1.1.96,1.1.96-23.04-.18-46.13.02-68.99.69-69.6,2.15-138.2.64-208.11-1.56h0Z"/></g><g><path d="m70.35,147.85s-1.51,97.43,68.81,97.43,67.25-97.43,67.25-97.43H70.35Z"/><path class="cls-1" d="m70.6,148.1c.06.04.11.03.12.03l.02.24s.04.52.04.52c.06.56.24,2.49.31,3.1,4.07,34.35,15.21,77.11,51.91,88.91,0,0,3.86,1.09,3.86,1.09,1.88.44,4.03.73,5.94,1.12,3.15.32,6.97.66,10.14.53,2.34.11,5.77-.4,8.12-.65,1.99-.39,4.01-.78,5.98-1.29.96-.33,2.91-.95,3.87-1.28,30.32-11.45,38.88-47.19,41.49-76.28.44-5.33.64-10.9.49-16.19,0,0,3.53,3.42,3.53,3.42-45.43.8-90.26-1.16-135.82-3.28h0Zm-.49-.5c45.09-2.31,90.98-4.04,136.31-3.28,0,0,3.53,3.42,3.53,3.42-.03,11.42-1.37,22.64-3.79,33.77-7.79,34.97-28.7,64.42-67.3,65.39-1.54,0-4.91-.02-6.4-.04-2.08-.24-4.35-.34-6.41-.63-10.05-1.53-19.8-5.62-27.54-12.27-22.37-19.18-29.46-53.71-28.76-81.92,0,0,.11-2.09.11-2.09,0,0,.07-1.05.07-1.05,0,0,.04-.52.04-.52l.02-.28c0-.17.06-.36.13-.49h0Z"/></g><g><rect x="129.49" y="244.62" width="19.34" height="145.22"/><path class="cls-1" d="m129.24,390.1c-2.47-35.67-3.61-72.85-1.35-108.86.59-12.26.67-24.38.38-36.61,0,0,1.22-1.22,1.22-1.22,3.22-.06,6.45-.17,9.67-.29,3.22-.1,6.45-.28,9.67-.41,0,0,1.92,1.92,1.92,1.92,1.68,36.28,2.38,72.61,1.32,108.92-.32,12.11-.82,24.21-1.51,36.31,0,0-1.72,1.72-1.72,1.72-5.88-.17-13.71-1.09-19.58-1.47h0Zm.5-.49c6.51-.43,12.76-1.1,19.09-1.47,0,0-1.72,1.72-1.72,1.72-1.34-24.18-2.06-48.4-2.04-72.61.22-24.21.59-48.43,1.84-72.61,0,0,1.92,1.92,1.92,1.92-6.44-.29-12.89-.58-19.34-.7,0,0,1.22-1.22,1.22-1.22-.93,23.85,1.51,47.64,1.67,71.42-.12,24.56-1.06,48.54-2.64,73.56h0Z"/></g><g><polygon points="84.49 430.85 123.32 389.85 155.12 389.85 195.31 430.03 84.49 430.85"/><path class="cls-1" d="m84.17,430.99c8.49-10.15,17.9-22.31,26.78-32.32,3.29-3.73,6.66-7.42,10.1-10.97l2.27-.98c7.65.05,16.17.7,23.85,1.22,2.65.2,5.3.33,7.95.49,0,0,1,.42,1,.42,12.57,14.14,27.21,26.5,41.21,39.16,0,0-2,4.89-2,4.89-4.73.22-9.48.38-14.25.5-31.79,1.33-65.23-.96-96.9-2.41h0Zm.64-.28c28.4-1.22,55.7-4.03,83.71-3.95,8.91.02,17.82.13,26.77.41,0,0-2,4.89-2,4.89-9.49-10.41-18.84-21.47-28.86-31.42-3.35-3.35-6.78-6.61-10.31-9.79,0,0,1,.42,1,.42-4.6.22-11.24.73-15.9,1.03-5.3.34-10.6.62-15.9.68,0,0,2.27-.98,2.27-.98-12.57,13.64-27.33,25.76-40.78,38.71h0Z"/></g><g><path d="m47.49,447.85h180.48c0-9.39-7.61-17-17-17H64.49c-9.39,0-17,7.61-17,17h0Z"/><path class="cls-1" d="m47.49,447.5c23.51-1.94,47.71-2.52,71.32-2.75,23.79-.49,47.55,1.56,71.32,1.97,12.51.18,25.01,0,37.51-.41,0,0,.19,0,.19,0,0,0,.09,0,.09,0,1.42-1.38-1.82,1.89-1.5,1.51l-.06-.67c-.42-6.62-5.82-12.51-12.3-13.51-1.27-.21-2.62-.22-3.91-.16-9.86.34-19.87.53-29.71.69-31.58.68-63.5.57-95.09-.55-5.76-.17-12.05-.45-17.83-.68-1.31-.05-4.26-.28-5.62-.05-7.13.71-13.27,7.06-13.95,14.25,0,0-.05.36-.05.36,0,0-.02.18-.02.18,0,0-.01.09-.01.09-.16-.13.34.41-.36-.26h0Zm0,.7c-.7-.73-.2-.26-.35-.44-.26-4.13.96-8.25,3.46-11.59,3.16-4.3,8.51-7.04,13.93-7.25,1.75-.1,7.06-.31,8.91-.38,43.51-1.88,87.23-1.66,130.74-.49,2.86.15,8.09.02,10.89.81,8.21,2,14.46,9.73,14.42,18.15,0,0,.02.81.02.81.35-.29-2.96,2.99-1.6,1.59-4.67-.15-9.35-.29-14.02-.36-31.72-.98-63.37,2.42-95.09,1.91-23.61-.23-47.8-.81-71.32-2.75h0Z"/></g><path class="cls-2" d="m262.49,1.85c-32.79-6.01-58.71,2.1-74,32-10.71,27.79-10.29,54.6,34.81,77.5,49.93,16.56,74.31.28,88.19-29.5,10.99-43.21-4.4-70.44-49-80Zm-16,11l2.32,31.65-29.32-20.65c5.18-6.52,12.41-11.51,27-11Zm-37,17c13.58,5.93,22.97,11.87,24.66,17.8l-31.99,8.68c-2.43-8.89.55-17.71,7.33-26.48Zm4,55c-10.55-5.51-13.32-11.91-10-19,11.12-7.71,23.58-9.12,36.83-6.87l-26.83,25.87Zm37,17c-13.66-2.27-19.6-7.2-23-13,3.71-11.71,11.37-21.67,23-29.87v42.87Zm11-84c16.44.75,21.26,7.41,23.27,15.5l-30.27,15.5,7-31Zm8.14,79.12c-8.08-10.73-11.67-23.9-13.54-37.99l32.4,21.87c-4,8.77-10.73,13.48-18.86,16.12Zm24.02-28.12l-36.16-15c10.5-6.91,21.77-11.92,36.16-9.35,6.5,8.64,4.97,16.63,0,24.35Z"/><polygon class="cls-1" points="35.36 35.05 136.56 234.92 142.19 233.77 41.68 33.62 35.36 35.05"/></g></svg>