<?xml version="1.0" encoding="UTF-8"?><svg id="Calque_2" xmlns="http://www.w3.org/2000/svg" viewBox="0 0 314.32 521.49"><defs><style>.cls-1{fill:#f7f5f3;}.cls-2{fill:#ff7a00;}</style></defs><g id="Calque_2-2"><g><path d="m180,188.22H28c-6.63,115.79-26.31,238,27.95,323.86,2.41,3.81,6.59,6.14,11.1,6.14h67.34c4.75,0,9.15-2.55,11.44-6.71,51.04-92.95,37.58-210,34.18-323.29Z"/><path class="cls-1" d="m179.76,188.47c-49.14,1.36-102.81,2.5-151.76,2.77,0,0,3.01-2.85,3.01-2.85-2.83,64.72-13.03,129.09-9.98,193.93,1.17,21.45,3.87,43.02,9.2,63.85,5.75,22.63,14.79,44.6,27.48,64.17,2.15,3.62,6.09,5.55,10.31,5.23,15.78-.17,40.13-.5,55.98-.57,1.87-.03,7.01-.03,8.84-.06,0,0,1.47,0,1.47,0,3.33.01,6.6-1.78,8.3-4.6,2.6-4.83,5.41-10.42,7.69-15.45,42.32-93.86,28.69-206.02,29.46-306.44h0Zm.49-.5c.53,6.48,1.18,17.16,1.59,23.77,5.74,98.59,17.09,206.13-30.61,296.76-.34.55-1.74,3.34-2.1,3.96-2.45,4.96-7.54,8.46-13,8.94-1.79.16-4.41.05-6.24.06-18.31-.13-43.59-.34-61.88-.61-5.68.26-11.64-2.88-14.37-7.96-15.41-25.55-24.51-54.25-29.5-83.5-8.16-48.54-7.33-98.27-5.23-147.28,1.37-31.45,4.06-62.77,6.06-94.07,0,0,3.01-2.85,3.01-2.85,49.22.11,102.89,1.52,152.24,2.77h0Z"/></g><g><ellipse cx="104" cy="188.72" rx="76" ry="17.5"/><path class="cls-1" d="m180.35,188.72c-.45,6.24-11.08,9.58-16.04,11.58-32.41,11.77-67.34,10.22-100.76,4.37-6.68-1.09-13.35-2.3-19.94-4.09-7.71-1.99-24.16-7.73-14.72-17.77,4.05-3.76,9.24-5.77,14.26-7.5,6.6-2.19,13.34-3.59,20.09-4.7,26.9-4.18,54.66-4.6,81.38.97,7.87,1.86,35.47,7.97,35.73,17.14h0Zm-.7,0c-1.72-11.35-36.21-12.65-45.68-13.12-23.23-.98-46.69-1.15-69.78,1.56-5.39.62-41.8,5.62-32.71,14.63,3.48,3.25,8.31,5.02,12.82,6.51,6.34,2,12.94,3.3,19.59,4.14,19.98,2.38,40.12.76,60.12.06,11.1-.8,53.42-.82,55.65-13.77h0Z"/></g><g><rect class="cls-1" x="52.91" y="148.9" width="223.59" height="5.73" transform="translate(-14.48 286.12) rotate(-79.52)"/><path d="m147.27,262.34s-5.77-.85-5.77-.85c0,0-.31-.05-.31-.05,1.51-9.31,2.99-18.62,4.61-27.91,4.51-26.48,9.74-56.15,14.9-82.51,7.42-36.35,14.78-74.16,20.86-110.66,1.2.21,6.14,1.05,7.34,1.25-2.71,16.27-6.92,39.71-9.87,56.22-9.73,54.48-20.75,110.47-31.76,164.5h0Zm-.17-.25c12.2-73.38,25.27-147.03,39.87-219.9,0,0,.72,1.05.72,1.05l-5.62-1.12.96-.66c-9.39,45.24-16.57,92.04-24.91,137.51-5.04,26.59-10.68,55.93-16.26,82.26,0,0-.25-.37-.25-.37,0,0,5.49,1.23,5.49,1.23h0Z"/></g><g><polygon points="40.48 54.94 98.35 100.35 168.68 114.57 238.06 122.4 313.27 106.87 190.86 3.54 40.48 54.94"/><path class="cls-1" d="m40.83,55c19.39,14.37,40.04,28.69,59.17,43.25,0,0-1.12-.52-1.12-.52,22.89,4.28,47.73,9,70.4,13.89,8.62,1.05,24.61,3.26,34.34,4.64,9.45,1.42,26.43,3.62,34.17,4.83,25.06-4.7,50.31-10.05,75.15-15.81,0,0-.72,2.83-.72,2.83-18.62-14.81-44.18-35.56-62.22-50.46-18.27-14.98-43.74-36.25-61.56-51.24,0,0,3.63.68,3.63.68-48.98,16.67-101.8,32.26-151.24,47.91h0Zm-.69-.12C89.05,36.79,140.34,16.88,189.65,0c0,0,3.63.68,3.63.68,29.38,24.87,62.13,52.98,91.05,78.39,0,0,29.99,26.55,29.99,26.55l-.72,2.83c-25.08,4.56-50.39,9.63-75.26,15.25-10.17-.76-24.87-2.22-35.21-3-10.39-.97-24.83-2.03-35.04-3.18-22.77-4.29-47.54-9.64-70.27-14.56,0,0-1.12-.52-1.12-.52-18.88-15.2-38.01-32.05-56.56-47.57h0Z"/></g><g><path d="m225,161.22c-45.8-63.32-127.93-14.01-125-1l100.3,113c9.03-.21,67.08-53.4,24.7-112Zm-71.6,29.8c-7.37-6.12-14.08-12.24-19.99-18.35-.69-.72-.76-1.83-.18-2.64,7.09-10.05,16.28-14.62,27-15.15,1.26-.06,2.22,1.11,1.96,2.34-2.4,11.12-4.55,22.11-6.25,32.84-.19,1.2-1.6,1.74-2.54.96Zm8.41-.22c2.55-6.36,13.5-33.3,17.34-35.86,5.81.73,26.88,10.9,30.51,20.34-5.18,6.47-39.56,14.8-46.98,16.54-.6.14-1.1-.45-.88-1.02Zm46.36,37.08l-8.71,11.19c-.99,1.27-2.88,1.37-4,.2-10.15-6.14-18.11-16.09-25.6-26.88-.39-.41,0-1.09.55-.95l35.03,8.61c3.47.85,4.91,5,2.72,7.82Zm10.99-14.82c-.16,1.02-1.17,1.67-2.17,1.39l-45.98-12.85c-.41-.12-.4-.71.02-.8,7.87-1.8,42.42-9.8,45.64-11.85,5.4,2.17,3.37,18.47,2.5,24.11Z"/><g><path class="cls-1" d="m224.72,161.43c-14.59-20.63-37.19-30.36-62.15-28.76-14.72.83-29.27,4.8-42.51,11.3-6.38,3.29-13.11,7.02-17.47,12.82-.76,1.09-1.27,2.34-1.15,3.12,0,0-.33-.65-.33-.65,16.08,19.4,33.26,37.83,50.7,56.01,15.21,15.81,36.31,39.06,51.27,55.51,0,0-2.85-1.24-2.85-1.24,3.65-1.58,7.61-4.99,10.76-8.02,11.15-10.89,19.73-24.59,24.33-39.51,6.62-20.75,2.38-43.05-10.59-60.57h0Zm.57-.41c21.58,28.86,23.17,63.35,1.87,93.01-5.04,7.2-17.75,21.99-26.76,22.89,0,0-2.85-1.24-2.85-1.24l-24.7-28.58c-16.53-19-32.14-38.82-48.61-57.87-4.14-4.74-8.27-9.49-12.49-14.17-4.22-4.68-8.51-9.28-12.83-13.87,0,0-.33-.65-.33-.65-1.02-6,7.11-12.44,11.25-15.78,20.02-14.92,46.81-22.02,71.29-15.75,18.18,4.58,33.4,17.01,44.17,32.01h0Z"/><path class="cls-1" d="m153.18,191.29c-3.28-2.85-7.18-4.83-10.95-7-3.82-2.2-7.11-5.05-9.82-8.47-1.12-1.35-2.35-2.94-2.04-4.76.12-1.68,1.38-2.76,2.52-3.81,7.5-6.51,15.47-13.84,25.73-15.37,0,0,.86-.12.86-.12,1.81-.37,3.86.38,4.99,1.85.9,1.11,1.33,2.65,1.1,4.1l-.26,1.72-.5,3.15c-.68,4.2-1.63,8.33-2.78,12.43-1.16,4.13-3.21,8.07-4.65,12.12-.37,1.03-.66,2.02-.95,3.11-.36,1.44-2.25,1.97-3.24,1.04h0Zm.45-.54c.64.55,1.76.12,1.79-.71.24-3.22-.05-6.52-.18-9.77-.38-7.99,1.4-15.83,3.53-23.46,0,0,.05-.19.05-.19,0,0,.03-.1.03-.1-.13.84.63,1.68,1.52,1.56.05-.01-.09,0-.13,0-10.11-.26-19.4,1.72-24.3,11.55,0,0-.69,1.39-.69,1.39-.09.18-.3.5.07.25.1-.09.14-.31.06-.49,0,0,.04.03.04.03,0,0,.08.06.08.06l.16.12c3.65,2.86,6.85,6.13,9.58,10,2.47,3.51,5.02,7.09,8.4,9.77h0Z"/><path class="cls-1" d="m161.48,190.67c2.66-6.18,3.58-13.01,5.56-19.42,1.56-4.87,3.8-9.5,6.84-13.66,1.25-1.6,2.34-3.13,4.15-4.31,0,0,1.35-.32,1.35-.32l1.33.42c4.61,1.89,11.7,5.76,16.23,7.99,5.88,3.05,12.65,6.44,15.64,12.79,0,0-.48,3.1-.48,3.1-3.41,3.94-7.9,5.66-12.39,7.69-4.13,1.7-8.34,2.97-12.6,4.01-6.36,1.65-13.08,1.66-19.58,2.46-1.08.14-2.15.3-3.22.49l-1.61.3c-.84.18-1.6-.75-1.24-1.53h0Zm.65.26c-.12.29.18.6.45.51,3.67-.97,7.19-2.42,10.63-4.04,6.74-3.47,16.67-6.91,23.85-9.41,3.41-1.27,7.38-2.47,10.14-4.68,0,0-.48,3.1-.48,3.1-3.86-9.09-16.05-17.74-25.77-19.32-.62-.14-1.43-.16-2.06-.17,0,0,1.35-.32,1.35-.32-.24.49-.58.98-.83,1.54-2.3,5.18-4.35,10.47-7.32,15.38-3.42,5.68-7.63,11.15-9.97,17.42h0Z"/><path class="cls-1" d="m208.45,228.09c-2.98,3.64-4.86,8.15-6.96,12.37-.36.63-.87,1.17-1.48,1.58-2.04,1.41-4.98,1.14-6.76-.66,0,0,.63.51.63.51-5.99-2.94-9.74-8.73-13.49-13.9-3.77-5.11-8.28-9.52-12.62-14.14,0,0,.25.31.25.31-2.27-2.25-.02-6.11,3.06-5.37,9.2,1.38,18.69,3.01,27.42,6.26,2.89,1.18,5.64,2.5,8.42,4.03,3.02,1.92,3.7,6.41,1.52,9.01h0Zm-.55-.43c1.71-2.06.56-5.71-2.15-5.99-.59-.05-1.78-.05-2.75-.07-4.02,0-7.97-.45-11.88-1.29-6.62-1.32-13.52-3.58-19.94-5.69,0,0-1.4-.52-1.4-.52.77.23,1.96-.29,2.31-1.05.44-.7.26-1.91-.36-2.42,1.67,2.76,2.88,5.85,4.66,8.54,1.66,2.62,3.57,5.07,5.84,7.17,4.69,4.27,10.57,6.94,15.46,10.82-.29-.13-.47.25-.2.38,3.62-3.03,7.58-6.08,10.41-9.88h0Z"/><path class="cls-1" d="m219.51,213.11c-.68,2.99-3.82,1.29-5.85,1.12-6.13-.94-12.57-.94-18.53-2.62-8.02-1.92-15.29-6.56-23.26-8.67l-.75-.21-.37-.1c-.85-.18-1.42-1.32-.94-2.12.29-.66,1.14-.81,1.76-.96,7-1.81,13.65-4.94,20.56-6.95,4.02-1.21,13.72-4.2,17.65-5.23,1.4-.35,3.91-1.09,4.99-1.39,0,0,3.21-.3,3.21-.3,9.11,4.66,2.23,19.73,1.53,27.43h0Zm-.69-.11c.62-4.14.47-8.44-.33-12.54-.58-2.77-1.2-5.63-2.61-7.82-.15-.26-.65-.65-.53-.43,0,0,3.21-.3,3.21-.3-8.01,3.96-16.38,4.95-24.94,6.76-7.36,1.46-14.97,1.61-22.32,3.17.59-.17.63-1.07.02-1.25,0,0,.37.11.37.11,8.13,2.53,17.02,2.27,25.13,4.85,3.96,1.15,7.76,2.88,11.51,4.76,2.82,1.38,5.64,2.7,8.6,3.69.82.38,1.74-.12,1.88-.99h0Z"/></g></g><g><ellipse cx="99.5" cy="464.72" rx="65.5" ry="21.5"/><path class="cls-1" d="m165.35,464.72c-.33,6.56-6.95,10.3-12.02,13.24-27.71,14.62-60.64,13.08-90.21,5.8-8.93-2.28-18.18-4.58-25.76-10.22-9.18-7.11-5.21-15.97,3.32-21.37,12.15-7.48,26.44-10.01,40.31-11.73,18.41-1.9,37.33-1.16,55.15,4.1,8.66,2.75,28.9,9.6,29.21,20.2h0Zm-.7,0c-1.58-14.86-35.64-16.48-47.3-17.28-17.74-1-35.83-.64-53.29,2.58-7.46,1.5-32.88,7.25-27.31,18.11,5.09,8.01,17.94,11.49,26.85,13.42,17.77,3.31,35.91,1.85,53.78.74,11.73-1.09,45.73-2.63,47.27-17.57h0Z"/></g><rect class="cls-2" x="80" y="137.22" width="9" height="343" transform="translate(-92.13 41.79) rotate(-18.18)"/><circle class="cls-2" cx="25.5" cy="129.72" r="25.5"/><g><ellipse cx="101.98" cy="311.22" rx="82" ry="9.48"/><path class="cls-1" d="m184.33,311.22c-.23,3.96-16.01,6.09-19.6,7.01-20.65,4.01-41.73,6.22-62.75,5.39-21.01-.94-41.87-3.07-62.79-5.1-5.31-.67-10.57-1.25-15.74-2.77-1.76-.6-3.83-1.23-4.94-3-1.24-2,.34-4.26,2.1-5.2,5.69-3.07,12.15-4.05,18.36-5.24,6.98-1.19,13.97-1.94,20.97-2.56,22.7-1.98,45.57-2.41,68.31-.74,12.22,1,24.46,2.86,36.49,5.13,3.84.97,19.31,3.09,19.59,7.07h0Zm-.7,0c-2.6-5.82-33.26-5.86-40-5.84-27.42.16-55.93-.26-83.24.98-6.91.35-13.82.84-20.66,1.52-5.74.72-11.76,1.04-17.11,3.21-.29.14-.55.31-.68.41-.16.12-.04.08-.05-.28-.03-.36-.18-.35-.03-.2.71.69,1.7,1.13,2.71,1.55,4.75,1.84,9.88,2.76,14.94,3.59,20.64,3.34,41.67,2.41,62.47,1.62,13.89-.47,27.75-.63,41.66-.63,6.93-.03,37.37-.07,39.99-5.94h0Z"/></g></g></svg>