<?xml version="1.0" encoding="UTF-8"?><svg id="Calque_2" xmlns="http://www.w3.org/2000/svg" viewBox="0 0 187.39 378.52"><defs><style>.cls-1{fill:#f7f5f3;}.cls-2{fill:#ff7a00;}.cls-3{stroke:#f7f5f3;stroke-linejoin:bevel;stroke-width:7px;}</style></defs><g id="Calque_2-2"><path class="cls-3" d="m10.24,13.75s40,216.01,84,216.01S178.24,13.75,178.24,13.75H10.24Z"/><g><path d="m23.66,19.17s42.58,154.97,70.58,155.27c28,.3,70.58-155.27,70.58-155.27H23.66Z"/><path class="cls-1" d="m23.94,19.39c.13-.04.09-.28.11-.14l.06.16c.19.53.59,1.69.79,2.25,8.95,25.44,18.78,54.1,28.39,79.29,7.48,17.87,21.84,60.6,36.6,70.66,18.37,12.14,41.65-57.57,45.99-70.41,9.23-27.4,17.74-55.14,25.35-83,0,0,3.59,4.71,3.59,4.71-45.26.2-95.51-1.95-140.88-3.51h0Zm-.56-.42c46.36-1.74,95.05-3.73,141.44-3.51,0,0,3.59,4.71,3.59,4.71-1.94,7.06-4.11,13.99-6.25,20.95-10.82,34.75-23.27,69.1-39.76,101.61-3.35,6.47-6.81,12.91-10.97,18.97-4.9,7.11-13.3,18.29-22.99,12.38-24.49-15.7-46.08-84.01-54.4-112.5-3.91-13.5-7.5-27.2-10.44-40.96,0,0-.14-.67-.14-.67l-.07-.33s-.03-.17-.03-.17c0,.03-.08-.32.02-.47h0Z"/></g><g><rect x="88.24" y="228.75" width="11" height="110"/><path class="cls-1" d="m98.99,229c-3.72.38-7.2.95-10.75,1.29,0,0,1.54-1.54,1.54-1.54,1.16,13.74,1.63,27.48,1.61,41.25-.06,13.76-1.95,27.5-2.07,41.25-.12,9.17.26,18.33.84,27.5,0,0-1.92-1.92-1.92-1.92l11-.69s-2.6,2.6-2.6,2.6c-2.04-36.85-.55-72.77,2.36-109.75h0Zm.5-.49c3.26,36.21,4.23,73.73,2.36,110.25,0,0-2.6,2.6-2.6,2.6l-11-.69-1.92-1.92c.59-9.17.97-18.33.84-27.5-.12-13.75-2.01-27.49-2.07-41.25-.02-13.77.45-27.51,1.61-41.25,0,0,1.54-1.54,1.54-1.54,3.44.17,7.84.91,11.25,1.29h0Z"/></g><g><polygon points="61.24 356.75 80.02 338.75 107.12 338.75 126.24 356.75 61.24 356.75"/><path class="cls-1" d="m60.91,356.88c5.39-6.77,10.56-14.15,16.97-20.36,0,0,2.14-.86,2.14-.86,9.09-.54,18.09,1.34,27.1,1.91,0,0,.81.32.81.32,6.03,6.41,13.17,11.58,20.13,16.92,0,0-1.82,4.59-1.82,4.59-11.26.82-23.26,1.13-34.54.36-9.59-.65-21.34-2-30.78-2.89h0Zm.65-.26c11.87-.75,22.95-2,34.22-2.89,10.39-.77,20.07-.45,30.46.36,0,0-1.82,4.59-1.82,4.59-5.75-6.62-11.34-13.45-18.1-19.08,0,0,.81.32.81.32-9.02.58-18.01,2.46-27.1,1.91,0,0,2.14-.86,2.14-.86-6.25,5.76-13.88,10.01-20.6,15.64h0Z"/></g><g><path d="m42.24,356.75h104c9.94,0,40,8.06,40,18h0s-184,0-184,0h0c0-9.94,30.06-18,40-18Z"/><path class="cls-1" d="m42.24,356.4c34.63-.15,69.27-4.4,103.93-2.25,10.66.71,32.4,7.64,39.22,15.8,1.05,1.25,1.86,2.98,1.91,4.69-.47.51,1.07-.98-1.06,1.16h-.09s-.19,0-.19,0h-.37s-.74,0-.74,0c-20.8-.08-41.58,1.08-62.36,1.76-39.82.85-79.73,1.87-119.52-.52,0,0-.37-.02-.37-.02h-.19s-.09-.02-.09-.02c-1.02-1.01,2.16,2.25-2.32-2.27.83-8.13,12.28-11.57,18.79-13.82,7.66-2.23,15.45-4.22,23.45-4.51h0Zm0,.7c-3.9.1-7.81.89-11.62,1.86-7.46,1.99-15.09,4.79-21.36,9.25-2.24,1.73-4.75,3.71-4.78,6.54-4.48-4.46-1.19-1.24-2.16-2.24h.09s.19-.02.19-.02l.37-.02c31.87-1.98,63.86-1.57,95.76-1.02,29.15.21,58.26,2.38,87.41,2.25,0,0,.09,0,.09,0-2.11,2.1-.59.54-1.06.99l-.06-.58c-2.06-7.48-17.9-11.54-24.82-13.08-5.68-1.21-11.38-1.98-17.1-1.55-33.67,1.92-67.32-2.29-100.96-2.36h0Z"/></g><g><ellipse cx="94.24" cy="13.75" rx="84" ry="10"/><path class="cls-1" d="m178.59,13.75c-.23,4.13-16.3,6.38-20.01,7.34-21.16,4.16-42.78,6.41-64.34,5.58-21.55-.95-42.94-3.11-64.38-5.3-3.59-.44-7.16-.93-10.72-1.61-3.29-.78-6.91-1.23-9.65-3.54-4.65-5.47,5.73-8.29,9.45-9.36C36.5,2.36,54.67,1.43,72.67.43c16.14-.72,32.38-.54,48.5.64,12.53,1.03,25.08,2.93,37.41,5.29,3.98,1.01,19.7,3.23,20.01,7.39h0Zm-.7,0c-2.51-6.1-34.06-6.27-40.94-6.28-28.11.07-57.35-.37-85.35.98-12.21.86-24.68,1.2-36.54,4.23-1.05.33-2.06.7-2.83,1.27-.16.13-.06.09-.08-.21-.02-.3-.15-.29,0-.13.71.72,1.73,1.18,2.76,1.63,4.85,1.93,10.11,2.9,15.29,3.77,21.15,3.49,42.73,2.59,64.04,1.81,14.24-.47,28.45-.65,42.71-.7,7.11-.06,38.36-.22,40.94-6.38h0Z"/></g><polygon class="cls-2" points="60.76 119.28 95.6 95.8 115.66 137.61 78.68 157.89 60.76 119.28"/><g><polygon class="cls-1" points="95.6 95.8 109.23 87.47 131.95 115.49 115.66 137.61 95.6 95.8"/><path d="m95.45,95.76c4.43-3.31,9.22-6.75,13.99-9.82,6.05,6.76,12.07,14.69,17.31,22.15,1.86,2.51,3.78,4.98,5.78,7.38-2.44,3.33-5.65,8.15-7.95,11.65-2.92,4.49-6.03,8.9-9.13,13.27,0,0-1.09-2.16-1.09-2.16-7-13.58-13.45-28.49-18.92-42.47h0Zm.29.09c7.83,13.91,14.85,26.82,21.22,41.15,0,0-2.45-.23-2.45-.23,3.99-5.27,8.65-10.97,12.86-16.11,1.44-1.79,2.84-3.59,4.21-5.43v.57c-3.17-4.13-8.32-9.67-11.87-13.59-4.04-4.46-7.74-9.21-11.39-13.99,0,0,1.52.26,1.52.26-3.87,2.19-10.01,5.33-14.1,7.37h0Z"/></g></g></svg>