<?xml version="1.0" encoding="UTF-8"?><svg id="Calque_2" xmlns="http://www.w3.org/2000/svg" viewBox="0 0 490.94 281.45"><defs><style>.cls-1{fill:#f7f5f3;}.cls-2{fill:#ff7a00;}</style></defs><g id="Calque_3"><g><path d="m318.36,150.93c.83,23.49,1.62,46.76,7.75,69.48,6.03-22.82,6.98-46.11,7.65-69.48h-15.4Z"/><path d="m326.09,61c-6.35,24.32-7.18,49.15-7.75,73.96h15.56c-.73-24.99-1.43-49.74-7.81-73.96Z"/><path d="m280.44,167.59c-4.33,0-8.41-1.04-12.02-2.88-.29-.09-.58-.18-.87-.26v104.47c18.76-12.84,37.13-25.41,55.47-37.95-6.15-12.52-7.5-25.99-8.84-39.36-1.35-13.45-1.89-26.98-2.79-40.6-1.87,0-3.78.11-5.68-.03-.24-.02-.47-.02-.68-.02-3.91,9.75-13.45,16.63-24.59,16.63Z"/><path d="m306.29,135.26c1.74.07,3.52,0,5.35,0,.06-1.08.14-1.81.15-2.55.27-19.09,1.23-38.13,4.19-57.02,1.34-8.54,2.71-17.11,7.13-25.07-18.37-12.58-36.76-25.17-55.52-38.01v105.29c3.8-2.11,8.18-3.32,12.84-3.32,12.63,0,23.19,8.84,25.85,20.67Z"/><path d="m340.57,134.54h103.81c.06-.27.11-.53.17-.8-37.33-25.55-74.66-51.1-112.38-76.92,6.96,26.02,7.56,52.14,8.41,77.72Z"/><path d="m332.18,224.69c36.5-24.98,72.42-49.56,108.35-74.15h-100.01c-.95,25-1.76,49.53-8.33,74.15Z"/><path class="cls-2" d="m459.22,134.2c-1.24,0-2.67-.36-3.69-1.04-9.53-6.41-18.99-12.93-28.47-19.42-50.83-34.8-101.66-69.6-152.49-104.4-4.43-3.04-8.88-6.05-13.71-9.34v3.39c0,39.16-.01,78.33.03,117.49,0,.87-.03,1.69-.14,2.49,1.96-2.18,4.28-4.02,6.86-5.45V12.62c18.76,12.85,37.15,25.43,55.52,38.01-4.42,7.96-5.79,16.53-7.13,25.07-2.97,18.88-3.92,37.93-4.19,57.02-.01.73-.08,1.47-.15,2.55-1.84,0-3.61.08-5.35,0,.42,1.88.65,3.83.65,5.83,0,3.49-.68,6.82-1.91,9.87.21,0,.44,0,.68.02,1.9.14,3.81.03,5.68.03.9,13.62,1.44,27.15,2.79,40.6,1.34,13.37,2.69,26.84,8.84,39.36-18.33,12.55-36.7,25.11-55.47,37.95v-104.47c.29.08.58.17.87.26-3.26-1.66-6.14-3.98-8.45-6.78.44.8.85,1.74.85,2.62.04,39.33.03,78.66.03,117.99,0,.8,0,1.6,0,2.91,1.24-.79,1.94-1.21,2.62-1.68,25.22-17.25,50.44-34.5,75.66-51.76,37.31-25.53,74.61-51.09,111.96-76.56,1.33-.91,3.19-1.4,4.81-1.44,8.24-.2,16.49-.2,24.74-.25,3.46-.02,6.91,0,10.3,0v-15.51c-10.75,0-21.24.03-31.73-.05Zm-133.13-73.2c6.38,24.22,7.09,48.97,7.81,73.96h-15.56c.56-24.8,1.39-49.64,7.75-73.96Zm-7.73,89.92h15.4c-.67,23.37-1.62,46.66-7.65,69.48-6.13-22.72-6.92-45.99-7.75-69.48Zm13.81,73.77c6.58-24.62,7.39-49.16,8.33-74.15h100.01c-35.93,24.59-71.85,49.17-108.35,74.15Zm112.2-90.16h-103.81c-.84-25.58-1.45-51.7-8.41-77.72,37.72,25.82,75.05,51.37,112.38,76.92-.06.27-.11.53-.17.8Z"/><path class="cls-2" d="m254.57,135.34c-.42.23-.95.32-1.64.32-38.99.25-77.98.58-116.97.83-42.16.28-84.32.5-126.47.74-3.15.02-6.29,0-9.49,0v15.79c.95,0,1.77,0,2.58,0,9-.09,17.99-.2,26.99-.26,50.32-.34,100.64-.67,150.96-1.01,23.83-.16,47.66-.29,71.48-.58,1.96-.02,3.44.25,4.5,1.33-1.65-3.46-2.58-7.33-2.58-11.42,0-1.98.22-3.9.63-5.75Z"/><path class="cls-1" d="m257.73,154.55c-.31-.9-.72-1.55-1.21-2.04.93,1.95,2.09,3.77,3.45,5.41-.01-.02-.02-.05-.04-.07-.65-1.16-1.78-2.1-2.21-3.3Z"/><path class="cls-1" d="m301.71,153.31c-5.13,9.92-15.97,15.13-26.98,13.13-2.11-.38-4.16-1.09-6.31-1.72,3.61,1.84,7.69,2.88,12.02,2.88,11.15,0,20.68-6.89,24.59-16.63-1.53.04-2.46.69-3.32,2.35Z"/><path class="cls-1" d="m255.77,133.68c.73-2.1,1.68-4.26,3.09-5.94,1.17-1.39,1.67-2.83,1.88-4.37-3,3.33-5.17,7.44-6.17,11.97.53-.28.9-.79,1.2-1.66Z"/><path class="cls-1" d="m270.76,118.3c4.21-1.65,8.59-2.06,13-1.27,9.57,1.7,16.02,7.24,19.56,16.27.29.74.97,1.81,1.55,1.86.47.05.94.07,1.41.09-2.66-11.83-13.22-20.67-25.85-20.67-4.66,0-9.04,1.21-12.84,3.32v1.61c1.2-.46,2.18-.84,3.16-1.22Z"/><path class="cls-1" d="m268.42,164.71c2.15.64,4.2,1.34,6.31,1.72,11.01,2.01,21.85-3.21,26.98-13.13.86-1.66,1.8-2.31,3.32-2.35,1.22-3.05,1.91-6.38,1.91-9.87,0-2-.23-3.95-.65-5.83-.47-.02-.94-.04-1.41-.09-.58-.06-1.26-1.12-1.55-1.86-3.54-9.03-9.99-14.57-19.56-16.27-4.41-.78-8.78-.38-13,1.27-.98.38-1.97.76-3.16,1.22v-1.61c-2.58,1.43-4.9,3.28-6.86,5.45-.21,1.55-.71,2.98-1.88,4.37-1.41,1.67-2.36,3.84-3.09,5.94-.31.88-.67,1.38-1.2,1.66-.41,1.85-.63,3.78-.63,5.75,0,4.09.93,7.96,2.58,11.42.49.5.9,1.15,1.21,2.04.42,1.21,1.56,2.15,2.21,3.3.01.02.02.05.04.07,2.31,2.8,5.19,5.12,8.45,6.78Z"/></g></g></svg>