<?xml version="1.0" encoding="UTF-8"?><svg id="Calque_2" xmlns="http://www.w3.org/2000/svg" viewBox="0 0 317.18 443.6"><defs><style>.cls-1{fill:#f9f7f5;}.cls-2{fill:#ff7a00;}</style></defs><g id="Calque_3"><g><path d="m189.73,147.79c-7,.15-14-.23-21.01.43-3.96.37-7.98.13-11.97.05-3.93-.08-7.84.16-11.78-.39-3.18-.44-6.48-.05-9.72-.1-3.26-.05-6.51.07-9.78-.42-3.46-.52-7.04.42-10.51-.57-4.28.37-8.5-.62-12.77-.53-1.09.02-2.19-.38-3.29-.45-1.24-.08-2.49-.02-3.74-.02-.08,0-.19.04-.25,0-1.09-.83-2.36-.37-3.54-.5-1.18-.14-2.35-.37-3.54-.48-2.09-.2-4.19-.34-6.28-.51-.08,0-.2.04-.24,0-.81-.84-1.86-.35-2.79-.5-.93-.15-1.85-.37-2.79-.49-1.59-.2-3.34,0-4.74-.61-1.38-.6-2.81-.09-4.16-.82-1.03-.56-2.44-.43-4.11-.66,2.22,2.42,4.25,4.31,6.03,6.49,2.33,2.86,5.23,5.2,7.58,8.09,2.43,2.99,5.49,5.41,7.94,8.44,2.32,2.87,5.23,5.2,7.59,8.09,2.44,2.99,5.48,5.42,7.94,8.44,2.43,2.99,5.49,5.42,7.94,8.44,2.32,2.87,5.23,5.2,7.59,8.09,2.44,2.99,5.41,5.5,7.95,8.43,3.78,4.36,7.95,8.37,11.93,12.56,1.06,1.11,2.28,2.06,3.05,3.47.35.64.92,1.37,1.83,1.53,19.07-25.31,38.11-50.57,57.29-76.02-2.67.16-5.19-.3-7.64.54Z"/><path d="m164.3,426.97h-11.51v-16.43h-2.05c-2.91,0-5.83-.11-8.73.03-2.84.14-5.67.54-8.53.51-2.26-.02-4.52-.28-6.8.38-1.46.42-3.14.01-4.72.1-1.6.08-3.19.32-4.79.48-1.6.16-3.18-.19-4.81.42-1.09.41-2.47.01-3.71.1-1.18.08-2.35.36-3.54.47-2.17.2-4.35.34-6.53.51-.08,0-.2-.04-.24,0-.82.81-1.85.37-2.79.5-.93.13-1.85.37-2.79.48-1.76.2-3.59.1-5.27.57-2.44.69-4.94.87-7.4,1.36-2.08.41-4.13,1.21-6.31,1.08-1.28.88-2.85.73-4.24,1.2-1.39.47-2.81.84-4.2,1.3-2.63.87-5.35,1.51-7.74,3-.43.27-.81.62-1.37,1.07,1.74.89,3.16,1.92,4.74,2.37,3.73,1.05,7.29,2.77,11.22,3.05.74.9,1.93.43,2.87.93.93.49,2.16.4,3.25.57,1.01.16,2.1.15,3.02.54,1.1.47,2.27.19,3.28.53.7.24,1.36.34,2.07.43.77.1,1.52.36,2.29.47.8.11,1.74-.12,2.4.23.83.45,1.61.25,2.39.25.83,0,1.54.31,2.3.48,1.03.22,2.31-.26,3.17.18,1.01.52,1.92.19,2.85.36,1.01.18,2.02.42,3.04.48,1.6.1,3.19.13,4.8.44,1.96.38,4,.12,6.03.5,2.45.45,4.99.04,7.53.5,2.95.53,6-.15,9.03.5,1.91.41,3.98.08,5.97.08s3.83-.06,5.74.02c1.93.08,3.85.42,5.78.46,3.66.08,7.32.08,10.98,0,3.59-.07,7.17.04,10.79-.39,5.04-.6,10.18.36,15.27-.54,1.77-.31,3.65.01,5.48-.07,1.85-.08,3.7-.5,5.53-.44,3.2.1,6.32-.91,9.53-.54.16.02.41.07.49,0,.98-1,2.21-.29,3.3-.48,1.17-.2,2.36-.51,3.53-.47,2.29.09,4.48-.92,6.78-.54,1.19-.71,2.59-.21,3.76-.59.79-.25,1.53-.32,2.32-.42.85-.11,1.69-.36,2.54-.48,1.51-.2,3.1-.11,4.51-.59,1.05-.36,2.11-.14,3.05-.47,2.59-.89,5.31-1.21,7.94-1.88,2.48-.64,4.93-1.36,7.4-2.05,2.09-.58,4-1.59,6.05-2.28.76-.26,1.39-.91,2.08-1.39-1.99-1.25-3.95-2.15-6-2.84-3.68-1.24-7.31-2.68-11.24-2.99-2.49-1.24-5.33-1.09-7.92-1.95-.94-.31-2.01-.12-3.05-.48-.93-.33-2-.18-3.04-.49-1.11-.33-2.34-.16-3.54-.5-1.11-.32-2.35-.29-3.53-.49-1.4-.23-2.85-.3-4.28-.54-1.41-.23-2.85-.16-4.29-.47-1.62-.34-3.34-.16-5.03-.5-1.79-.36-3.67-.14-5.53-.5-2.12-.41-4.33-.1-6.53-.49-2.78-.5-5.72.33-8.51-.58-5.69.37-11.34-.58-17.02-.5-1.75.02-3.49,0-5.24,0h-2.24v16.43Z"/><path d="m74.16,137.25c1.11.33,2.34.09,3.54.48,1.09.36,2.34.08,3.54.51.88.32,2.2-.3,2.92.15,1,.62,1.91.34,2.84.38.98.03,1.87.39,2.79.49,1.67.19,3.35.15,5.04.46,2.04.37,4.17.12,6.28.52,2.04.39,4.17.12,6.28.48,2.7.46,5.49.1,8.27.51,3.46.5,6.99.08,10.52.48,5.46.62,10.99-.2,16.51.5,3.76.48,7.64.09,11.47.09s7.65.08,11.48-.02c3.76-.1,7.52.35,11.28-.41,1.92-.38,3.98-.07,5.97-.07s4.16.06,6.24-.02c1.93-.08,3.85-.39,5.78-.46,2.16-.08,4.32-.02,6.66-.02.58-.58,1.21-1.05,1.63-1.65,1.94-2.82,4.05-5.5,6.12-8.22.83-1.09,2.27-1.93,2.27-3.58-2.59-.19-5.17.03-7.78-.44-3.11-.56-6.32.06-9.52-.49-2.75-.47-5.64-.03-8.47-.12-2.76-.08-5.52-.43-8.28-.46-7.23-.07-14.47-.13-21.71,0-7.17.13-14.34-.45-21.51.42-4.47.54-9-.29-13.52.48-3.11.53-6.33-.15-9.53.5-2.36.48-4.83-.05-7.28.49-2.1.47-4.34-.04-6.53.51-1.69.42-3.5-.05-5.29.5-1.5.46-3.15-.04-4.79.47-1.47.46-3.18,0-4.77.55-1.11.38-2.32-.09-3.56.44-1.09.47-2.49.05-3.77.54-.84.32-1.83.09-2.79.48-.9.37-1.99.12-3.03.5-1.31.48-2.91.19-4.22.66-1.39.5-2.84.7-4.34,1.14.41.29.7.66,1.06.74,1.99.45,4.02.72,5.98,1.25,2.05.55,4.18.61,6.22,1.22Z"/><path d="m68.6,126.33c1.34-.2,2.63-.81,4.03-.52,2.42-1.09,5.11-.78,7.63-1.43,1.44-.37,3.01-.13,4.54-.5,1.45-.35,3-.16,4.54-.49,1.62-.36,3.34-.16,5.03-.5,1.79-.36,3.67-.14,5.53-.5,2.12-.41,4.33-.08,6.53-.49,2.61-.49,5.32-.08,8.03-.49,3.53-.54,7.16-.07,10.77-.5,5.13-.6,10.32.11,15.52-.49,4.19-.49,8.47-.1,12.72-.1s8.65-.08,12.98.02c4.17.11,8.34-.25,12.54.38,3.09.47,6.32.23,9.47.05,3.21-.18,6.33.62,9.53.58,2.17-.03,4.34-.22,6.55.37,1.63.44,3.47.15,5.22.07,1.71-.08,3.29.68,5.04.59,1.18-.06,1.92-.52,2.45-1.32.79-1.18,1.59-2.35,2.48-3.47,1.43-1.79,2.72-3.68,4.04-5.48-8.68-8.51-11.91-18.75-10.03-30.67H6.46c2.62,2.82,5.34,5.29,7.67,8.15,2.33,2.86,5.23,5.2,7.61,8.07,2.88,3.48,6.18,6.61,9.3,9.9,2.08,2.2,4.22,4.34,6.24,6.63,3.98,4.52,8.3,8.73,12.47,13.09,1.06,1.11,2.05,2.29,2.95,3.3,1.68-.49,3.21-1.36,4.95-1.83,1.65-.44,3.29-.91,4.95-1.29,1.99-.45,3.99-.84,6.01-1.15Z"/><path d="m279.18,85.63c.01,2.18.1,4.34-.37,6.55-.45,2.14-.88,4.27-1.53,6.37-1.62,5.27-5.34,10.22-8.16,13.08-1.22,1.23-2.77,2.12-4.14,3.21-2.52,2.01-5.51,3.21-8.44,4.32-2.46.93-5.18,1.39-7.81,1.57-2.31.16-4.66.1-7.05-.29-2.81-.46-5.45-1.33-8.12-2.12-1.38,1.78-2.76,3.55-4.17,5.36,2.56.21,5.06.42,7.55.62.17.01.41-.07.49.01.74.76,1.69.37,2.55.5.85.13,1.69.37,2.54.48,1.59.2,3.24.16,4.77.56,1.52.4,3.05.67,4.59.95,1.62.3,3.25.57,4.82,1.01,2.15.61,4.28,1.31,6.37,2.09,1.49.55,1.7.64,2.73-.45,1.51-1.6,2.94-3.27,4.42-4.9,2.32-2.55,4.91-4.82,7.12-7.51,2.49-3.04,5.57-5.58,8.09-8.64,2.3-2.79,5.06-5.15,7.44-7.89,4.01-4.6,8.43-8.84,12.64-13.27,1.76-1.85,3.41-3.81,5.16-5.78h-32.14c.24,1.48.64,2.82.64,4.15Z"/><path d="m251.18,141.78c-1.36.11-2.63.85-4.03.52-2.26,1.01-4.78.77-7.13,1.44-1.27.36-2.67.12-4.04.49-1.27.34-2.67.22-4.03.5-1.63.34-3.34.11-5.04.5-1.61.37-3.39-.11-5.02.57-3.12-.38-6.16.78-9.44.46-21.5,28.53-43.04,57.12-64.62,85.76,4.13,3.41,6.95,7.99,11.1,11.3.39-.55.64-1.03,1-1.41,2.83-2.99,5.89-5.74,8.5-8.95,2.33-2.86,5.24-5.2,7.61-8.07,2.88-3.48,6.2-6.6,9.29-9.91,2.02-2.15,4.16-4.17,6.07-6.44,2.64-3.14,5.78-5.84,8.43-9.01,2.21-2.64,4.89-4.85,7.1-7.53,2.66-3.23,5.94-5.91,8.62-9.18,2.13-2.6,4.75-4.75,6.91-7.36,2.61-3.16,5.82-5.8,8.45-8.99,2.35-2.85,5.18-5.26,7.61-8.07,3.72-4.3,7.83-8.26,11.76-12.38,1.37-1.44,2.69-2.94,4.03-4.42-1.18-.18-2.14.11-3.13.18Z"/><path d="m247.47,132.22c-2.31-.91-4.81-.72-7.15-1.39-.76-.22-1.76.13-2.39-.23-.83-.48-1.6-.24-2.38-.27-.81-.03-1.55-.37-2.29-.46-2.73-.35-5.49-.44-8.03-.61-2.69,3.57-5.25,6.98-7.93,10.54,1.88,0,3.75.28,5.47-.1,1.12-.24,2.22-.5,3.3-.36,1.27.16,2.33-.51,3.54-.56,2.18-.09,4.35-.31,6.53-.48.08,0,.2.04.24,0,.66-.69,1.51-.41,2.29-.51.85-.11,1.69-.37,2.54-.47,1.02-.12,2.02.01,3.07-.44.88-.39,1.98-.12,3.03-.5,1.31-.48,2.88-.23,4.23-.66,1.36-.44,2.76-.52,4.1-.93.41-.13.77-.44,1.6-.95-2.58.1-4.4-1.19-6.51-1.03-.98-.84-2.24-.19-3.25-.59Z"/><path class="cls-1" d="m317.17,80.01c-.01-1.57-.95-2.87-2.32-3.76-1.07-.7-2.15-.9-3.39-.89-11.07.03-22.14,0-33.2.03-1.08,0-1.67-.21-2.21-1.34-1.04-2.16-1.97-4.42-3.62-6.25-.51-.57-.19-1.13.3-1.71,1.35-1.58,2.73-3.16,3.88-4.88,2.24-3.38,4.84-6.48,7.27-9.71,1.72-2.3,3.64-4.45,5.26-6.82,2.19-3.21,4.59-6.26,6.93-9.36,1.68-2.23,3.4-4.44,5.04-6.68,2.14-2.93,4.23-5.93,6.5-8.74,2.5-3.12,4.64-6.52,7.34-9.47.35-1.48,2.33-2.02,2.17-3.79-2.92-2.2-5.84-4.39-8.81-6.63-14.9,19.78-29.85,39.64-44.83,59.53-8.85-5.01-18.08-6.22-27.57-3.1-9.57,3.15-16.33,9.62-20.31,18.93h-81.15c-42.94,0-85.88,0-128.82-.02-1.46,0-2.63.36-3.69,1.38-1.16,1.12-1.71,2.38-1.89,3.98-.24,2.1.93,3.57,2.1,4.87,2.69,3,5.7,5.69,8.28,8.82,2.09,2.53,4.63,4.64,6.74,7.18,2.67,3.22,5.94,5.92,8.62,9.18,2.29,2.79,5.12,5.09,7.44,7.89,2.88,3.48,6.2,6.6,9.29,9.91,2.02,2.15,4.16,4.17,6.07,6.44,2.74,3.27,6.05,6.04,8.79,9.36,2.09,2.53,4.63,4.63,6.74,7.18,2.67,3.22,5.95,5.91,8.62,9.18,2.13,2.6,4.71,4.78,6.92,7.36,2.94,3.44,6.38,6.42,9.31,9.89,2.06,2.44,4.5,4.53,6.58,7,2.64,3.14,5.78,5.85,8.44,9.01,2.22,2.64,4.88,4.85,7.09,7.54,2.61,3.17,5.84,5.78,8.45,8.99,2.17,2.67,4.84,4.89,7.09,7.54,2.87,3.38,6.27,6.3,9.14,9.72,2.11,2.51,4.61,4.65,6.75,7.17,3.24,3.83,6.9,7.31,10.32,10.89v158.64c-4.13.33-8.21-.07-12.3.48-4.29.58-8.67-.19-13.02.53-2.79.47-5.67-.13-8.54.48-2.1.45-4.34-.02-6.53.51-1.86.44-3.84-.11-5.79.5-1.5.47-3.15-.04-4.8.47-1.47.46-3.16.17-4.77.52-2.03.45-4.17.4-6.27.57-.17.01-.41-.07-.49.01-1.09,1.11-2.6.28-3.91.87-1.12.5-2.65.23-3.99.58-1.3.34-2.73.2-4.02.57-2.86.82-5.83,1.12-8.66,2-1.63.51-3.31.74-4.93,1.36-2.59.99-5.35,1.57-7.89,2.66-2.3.98-4.55,2.15-6.32,4.07-.91.98-.95,2.29-1.58,3.35.68.7.49,1.73,1.15,2.55.81.99,1.8,1.69,2.75,2.44,2.08,1.65,4.59,2.6,7.05,3.44,1.81.62,3.65,1.27,5.57,1.69,2.11.46,4.2,1.09,6.32,1.59,1.97.46,3.96.9,5.94,1.28,1.25.24,2.46.84,3.78.52,2.26,1.02,4.78.78,7.14,1.43,1.18.33,2.51.3,3.78.51,1.25.2,2.52.25,3.79.5,1.48.29,3.01.11,4.54.49,1.45.36,3,.18,4.54.49,1.79.37,3.67.13,5.53.5,1.95.39,4,.12,6.03.5,2.45.45,5,.1,7.53.49,3.37.51,6.83.19,10.27.49,6.89.59,13.85-.4,20.76.57,1.63.23,3.33.1,4.99.02,1.68-.08,3.36-.42,5.04-.46,3.33-.08,6.66.04,9.99-.04,3.35-.08,6.7.32,10.04-.43,1.43-.32,2.99,0,4.48-.07,1.46-.08,2.89.15,4.38-.23,1.4-.36,2.93-.24,4.4-.24,2.77,0,5.49-.87,8.28-.51.08.01.19.04.25,0,1.17-.88,2.53-.34,3.79-.5,1.26-.15,2.52-.37,3.79-.49,2.09-.2,4.19-.34,6.28-.51.08,0,.2.04.24,0,.82-.8,1.85-.38,2.79-.5,1.02-.13,2.03-.47,3.04-.46,1.71.02,3.3-.91,5.04-.53.98-.84,2.29-.14,3.23-.62.66-.34,1.23-.27,1.85-.39.61-.12,1.21-.5,1.79-.46,2.2.15,4.12-1.34,6.33-1.03,1.59-.9,3.44-.9,5.13-1.48,1.68-.58,3.44-.92,5.11-1.54,3.19-1.18,6.37-2.34,9.21-4.33.88-.62,1.66-1.29,2.37-2.03,1.12-1.16,1.32-3.68.35-4.87-.83-1.01-1.81-1.93-2.85-2.73-2.8-2.15-6.29-2.91-9.36-4.51-3.09-.12-5.78-2.06-8.91-2-.72-.96-1.93-.36-2.88-.92-.88-.53-2.15-.41-3.24-.58-1.01-.16-2.11-.15-3.02-.55-1.1-.48-2.36-.08-3.27-.53-1.35-.68-2.79-.29-4.15-.84-1.04-.42-2.33-.17-3.52-.52-1.19-.35-2.51.01-3.8-.49-.94-.37-2.27.21-3.15-.21-1-.48-1.92-.19-2.85-.35-1.01-.18-2.02-.4-3.04-.49-1.52-.12-3.02-.1-4.55-.43-1.86-.4-3.83-.16-5.78-.51-2.29-.41-4.67-.09-7.03-.49-2.95-.5-6.05.33-9.02-.58-5.85.25-11.68-.31-17.52-.49-1.16-.04-2.33,0-3.49,0-.63,0-1.25-.06-1.87-.09v-158.41c2.46-2.85,5.29-5.24,7.65-8.13,2.59-3.18,5.84-5.79,8.45-9,2.17-2.67,4.85-4.89,7.09-7.54,2.76-3.26,6.03-6.07,8.79-9.36,2.21-2.64,4.89-4.84,7.1-7.53,2.49-3.04,5.57-5.58,8.09-8.65,2.3-2.79,5.14-5.07,7.44-7.9,2.43-2.99,5.46-5.46,7.93-8.46,2.34-2.85,5.22-5.22,7.61-8.08,2.69-3.21,5.94-5.93,8.62-9.18,2.09-2.53,4.63-4.64,6.74-7.18,2.67-3.22,5.94-5.92,8.62-9.18,2.29-2.79,5.09-5.11,7.45-7.89,2.87-3.38,6.26-6.31,9.13-9.72,1.95-2.32,4.26-4.29,6.23-6.64,2.63-3.14,5.78-5.85,8.43-9.01,2.21-2.64,4.87-4.86,7.1-7.53,2.74-3.27,5.98-6.12,8.8-9.35,3.31-3.78,6.91-7.31,10.38-10.95.06-.06.12-.12.18-.18.76-.7,1.03-1.58.99-2.59-.03-.66,0-1.33,0-2ZM52.69,130.6c-.9-1.01-1.89-2.19-2.95-3.3-4.16-4.36-8.49-8.57-12.47-13.09-2.01-2.28-4.15-4.42-6.24-6.63-3.11-3.29-6.42-6.42-9.3-9.9-2.37-2.87-5.28-5.21-7.61-8.07-2.33-2.86-5.05-5.33-7.67-8.15h207.29c-1.89,11.92,1.34,22.17,10.03,30.67-1.32,1.8-2.62,3.69-4.04,5.48-.89,1.12-1.69,2.28-2.48,3.47-.54.8-1.27,1.26-2.45,1.32-1.75.09-3.33-.67-5.04-.59-1.74.08-3.59.37-5.22-.07-2.21-.59-4.38-.4-6.55-.37-3.2.04-6.32-.76-9.53-.58-3.15.18-6.38.42-9.47-.05-4.2-.64-8.36-.28-12.54-.38-4.32-.11-8.65-.02-12.98-.02s-8.53-.39-12.72.1c-5.19.61-10.39-.11-15.52.49-3.61.43-7.24-.04-10.77.5-2.7.41-5.42,0-8.03.49-2.2.41-4.41.08-6.53.49-1.86.36-3.74.14-5.53.5-1.7.34-3.41.15-5.03.5-1.53.34-3.08.15-4.54.49-1.53.37-3.1.12-4.54.5-2.52.66-5.21.35-7.63,1.43-1.4-.29-2.7.32-4.03.52-2.02.31-4.02.7-6.01,1.15-1.66.38-3.3.85-4.95,1.29-1.74.46-3.27,1.33-4.95,1.83Zm8.21,3.44c1.49-.45,2.94-.64,4.34-1.14,1.32-.47,2.91-.19,4.22-.66,1.05-.38,2.14-.13,3.03-.5.96-.39,1.95-.17,2.79-.48,1.27-.48,2.68-.07,3.77-.54,1.24-.53,2.45-.06,3.56-.44,1.59-.55,3.29-.09,4.77-.55,1.64-.51,3.29,0,4.79-.47,1.78-.55,3.6-.08,5.29-.5,2.19-.55,4.43-.05,6.53-.51,2.45-.54,4.92,0,7.28-.49,3.19-.65,6.41.03,9.53-.5,4.52-.77,9.05.06,13.52-.48,7.17-.87,14.34-.29,21.51-.42,7.23-.13,14.47-.07,21.71,0,2.76.03,5.52.38,8.28.46,2.83.08,5.72-.35,8.47.12,3.2.54,6.42-.07,9.52.49,2.62.47,5.19.25,7.78.44,0,1.65-1.44,2.5-2.27,3.58-2.07,2.72-4.17,5.4-6.12,8.22-.42.61-1.04,1.07-1.63,1.65-2.33,0-4.5-.06-6.66.02-1.93.08-3.85.38-5.78.46-2.08.08-4.16.02-6.24.02s-4.06-.32-5.97.07c-3.77.76-7.53.31-11.28.41-3.82.1-7.65.02-11.48.02s-7.7.39-11.47-.09c-5.52-.71-11.05.12-16.51-.5-3.53-.4-7.06.02-10.52-.48-2.78-.4-5.57-.05-8.27-.51-2.12-.36-4.24-.09-6.28-.48-2.11-.4-4.24-.14-6.28-.52-1.7-.31-3.37-.27-5.04-.46-.92-.1-1.81-.46-2.79-.49-.93-.03-1.84.24-2.84-.38-.72-.45-2.03.17-2.92-.15-1.2-.43-2.44-.15-3.54-.51-1.2-.39-2.43-.15-3.54-.48-2.05-.61-4.17-.66-6.22-1.22-1.96-.53-3.99-.81-5.98-1.25-.36-.08-.65-.45-1.06-.74Zm79.18,89.23c-.91-.15-1.48-.89-1.83-1.53-.77-1.41-1.99-2.36-3.05-3.47-3.98-4.18-8.15-8.2-11.93-12.56-2.54-2.93-5.51-5.44-7.95-8.43-2.35-2.89-5.27-5.22-7.59-8.09-2.45-3.03-5.51-5.45-7.94-8.44-2.45-3.02-5.5-5.46-7.94-8.44-2.35-2.89-5.27-5.22-7.59-8.09-2.45-3.03-5.51-5.45-7.94-8.44-2.35-2.89-5.25-5.23-7.58-8.09-1.77-2.18-3.8-4.07-6.03-6.49,1.68.24,3.08.1,4.11.66,1.35.74,2.78.22,4.16.82,1.4.61,3.15.41,4.74.61.94.12,1.86.34,2.79.49.93.15,1.98-.34,2.79.5.04.04.16,0,.24,0,2.09.17,4.19.31,6.28.51,1.18.11,2.36.35,3.54.48,1.18.14,2.45-.33,3.54.5.05.04.16,0,.25,0,1.25,0,2.5-.06,3.74.02,1.1.07,2.2.48,3.29.45,4.27-.1,8.49.9,12.77.53,3.47.99,7.05.05,10.51.57,3.27.49,6.52.37,9.78.42,3.24.05,6.54-.34,9.72.1,3.94.55,7.86.31,11.78.39,3.99.08,8.01.32,11.97-.05,7.01-.66,14.01-.28,21.01-.43,2.46-.84,4.98-.37,7.64-.54-19.18,25.45-38.22,50.71-57.29,76.02Zm26.46,187.26c1.75,0,3.49.02,5.24,0,5.68-.08,11.33.87,17.02.5,2.8.91,5.73.08,8.51.58,2.2.39,4.41.09,6.53.49,1.86.36,3.74.14,5.53.5,1.7.34,3.41.16,5.03.5,1.45.31,2.88.24,4.29.47,1.43.23,2.88.3,4.28.54,1.18.2,2.42.17,3.53.49,1.2.34,2.43.16,3.54.5,1.03.31,2.11.17,3.04.49,1.03.36,2.1.17,3.05.48,2.6.86,5.43.71,7.92,1.95,3.93.32,7.56,1.76,11.24,2.99,2.05.69,4.01,1.59,6,2.84-.69.48-1.32,1.13-2.08,1.39-2.04.69-3.96,1.7-6.05,2.28-2.46.69-4.92,1.41-7.4,2.05-2.63.68-5.35.99-7.94,1.88-.94.32-2,.11-3.05.47-1.4.48-3,.39-4.51.59-.85.11-1.69.36-2.54.48-.78.1-1.52.17-2.32.42-1.17.38-2.57-.12-3.76.59-2.3-.39-4.49.62-6.78.54-1.17-.04-2.36.27-3.53.47-1.09.19-2.32-.52-3.3.48-.08.08-.32.03-.49,0-3.2-.37-6.33.64-9.53.54-1.84-.06-3.68.36-5.53.44-1.83.08-3.71-.25-5.48.07-5.09.9-10.22-.07-15.27.54-3.61.43-7.19.33-10.79.39-3.66.07-7.32.07-10.98,0-1.93-.04-3.85-.38-5.78-.46-1.91-.08-3.83-.02-5.74-.02s-4.07.34-5.97-.08c-3.03-.65-6.08.02-9.03-.5-2.54-.45-5.08-.04-7.53-.5-2.03-.38-4.08-.11-6.03-.5-1.61-.31-3.19-.34-4.8-.44-1.02-.07-2.03-.3-3.04-.48-.93-.17-1.84.15-2.85-.36-.86-.44-2.14.04-3.17-.18-.76-.16-1.47-.48-2.3-.48-.78,0-1.55.2-2.39-.25-.65-.35-1.59-.12-2.4-.23-.77-.11-1.52-.37-2.29-.47-.71-.09-1.36-.19-2.07-.43-1.01-.35-2.18-.06-3.28-.53-.91-.39-2-.38-3.02-.54-1.09-.17-2.32-.08-3.25-.57-.94-.5-2.12-.03-2.87-.93-3.94-.28-7.49-2-11.22-3.05-1.58-.45-3-1.48-4.74-2.37.56-.44.94-.8,1.37-1.07,2.39-1.49,5.11-2.12,7.74-3,1.39-.46,2.82-.83,4.2-1.3,1.4-.47,2.97-.32,4.24-1.2,2.18.13,4.23-.66,6.31-1.08,2.46-.49,4.96-.67,7.4-1.36,1.68-.47,3.51-.37,5.27-.57.94-.11,1.86-.35,2.79-.48.94-.13,1.97.31,2.79-.5.04-.04.16,0,.24,0,2.18-.17,4.36-.31,6.53-.51,1.18-.11,2.35-.39,3.54-.47,1.24-.08,2.62.31,3.71-.1,1.63-.61,3.22-.26,4.81-.42,1.6-.16,3.19-.4,4.79-.48,1.58-.08,3.26.32,4.72-.1,2.29-.66,4.55-.4,6.8-.38,2.87.03,5.69-.37,8.53-.51,2.91-.14,5.82-.03,8.73-.03h2.05v16.43h11.51v-16.43h2.24Zm83.75-264.53c-3.93,4.12-8.04,8.08-11.76,12.38-2.43,2.81-5.27,5.22-7.61,8.07-2.63,3.2-5.84,5.83-8.45,8.99-2.16,2.61-4.78,4.76-6.91,7.36-2.67,3.26-5.96,5.95-8.62,9.18-2.21,2.68-4.89,4.89-7.1,7.53-2.65,3.17-5.79,5.87-8.43,9.01-1.91,2.28-4.06,4.29-6.07,6.44-3.09,3.31-6.41,6.43-9.29,9.91-2.37,2.87-5.28,5.21-7.61,8.07-2.62,3.21-5.67,5.96-8.5,8.95-.36.38-.62.86-1,1.41-4.15-3.31-6.97-7.89-11.1-11.3,21.58-28.64,43.12-57.23,64.62-85.76,3.28.31,6.32-.84,9.44-.46,1.63-.68,3.4-.21,5.02-.57,1.7-.39,3.41-.16,5.04-.5,1.36-.28,2.76-.16,4.03-.5,1.37-.37,2.77-.13,4.04-.49,2.35-.67,4.87-.43,7.13-1.44,1.41.33,2.68-.41,4.03-.52.98-.08,1.95-.36,3.13-.18-1.34,1.47-2.65,2.97-4.03,4.42Zm5.34-11.22c-1.34.41-2.74.49-4.1.93-1.34.43-2.91.18-4.23.66-1.05.38-2.15.11-3.03.5-1.05.46-2.04.32-3.07.44-.85.1-1.69.36-2.54.47-.78.1-1.64-.18-2.29.51-.04.04-.16,0-.24,0-2.18.17-4.35.38-6.53.48-1.21.05-2.27.73-3.54.56-1.08-.14-2.18.11-3.3.36-1.72.38-3.59.1-5.47.1,2.68-3.57,5.24-6.97,7.93-10.54,2.54.17,5.31.27,8.03.61.74.09,1.48.43,2.29.46.78.03,1.55-.21,2.38.27.63.36,1.63.01,2.39.23,2.35.67,4.84.48,7.15,1.39,1.01.4,2.27-.25,3.25.59,2.11-.16,3.93,1.13,6.51,1.03-.84.51-1.19.83-1.6.95Zm49.9-47.54c-4.21,4.43-8.63,8.67-12.64,13.27-2.39,2.74-5.15,5.1-7.44,7.89-2.52,3.06-5.6,5.6-8.09,8.64-2.2,2.69-4.8,4.96-7.12,7.51-1.48,1.63-2.91,3.3-4.42,4.9-1.03,1.09-1.24,1-2.73.45-2.1-.77-4.22-1.48-6.37-2.09-1.58-.45-3.21-.72-4.82-1.01-1.54-.28-3.07-.55-4.59-.95-1.53-.4-3.18-.36-4.77-.56-.85-.11-1.69-.35-2.54-.48-.86-.13-1.8.27-2.55-.5-.08-.08-.32,0-.49-.01-2.5-.2-4.99-.41-7.55-.62,1.41-1.82,2.79-3.59,4.17-5.36,2.67.79,5.3,1.66,8.12,2.12,2.38.39,4.73.45,7.05.29,2.64-.18,5.36-.64,7.81-1.57,2.94-1.11,5.92-2.31,8.44-4.32,1.37-1.09,2.92-1.98,4.14-3.21,2.83-2.86,6.54-7.81,8.16-13.08.65-2.1,1.08-4.23,1.53-6.37.47-2.21.38-4.37.37-6.55,0-1.34-.4-2.67-.64-4.15h32.14c-1.75,1.97-3.4,3.92-5.16,5.78Z"/></g><circle class="cls-2" cx="243.45" cy="86.62" r="37"/></g></svg>