<?xml version="1.0" encoding="UTF-8"?><svg id="Calque_2" xmlns="http://www.w3.org/2000/svg" viewBox="0 0 400.3 392.26"><defs><style>.cls-1{fill:#f9f7f5;}.cls-2{fill:#ff7a00;}</style></defs><g id="Calque_3"><g><path d="m258.8,229.13c.65-.88,1.19-1.84,1.81-2.75,1.46-2.15,2.88-4.32,4.4-6.42,1.51-2.1,2.73-4.39,3.98-6.62,2.44-4.37,4.57-8.92,6.54-13.53.62-1.46,1.26-2.98,1.7-4.55.46-1.63,1.23-3.16,1.72-4.78.94-3.12,1.98-6.2,2.72-9.38.37-1.6.58-3.28,1.09-4.79.94-2.78.96-5.71,1.79-8.49.33-1.1.21-2.35.51-3.54.3-1.22-.21-2.59.55-3.78-.22-2.54.49-5.04.45-7.54-.1-5.68.58-11.38-.42-17.05-.32-1.82.17-3.7-.47-5.56-.4-1.17-.03-2.49-.46-3.8-.38-1.15-.17-2.51-.55-3.77-.36-1.21-.19-2.58-.59-3.76-.43-1.27-.6-2.6-.87-3.87-.84-3.89-1.83-7.72-3.1-11.48-2.01-5.99-4.14-11.94-6.96-17.61-2.24-4.51-4.4-9.09-7.19-13.25-2.91-4.33-5.63-8.79-9.05-12.79-2.95-3.44-5.67-7.08-8.9-10.29-3.58-3.54-7.05-7.2-10.93-10.43-1.18-.98-2.28-2.08-3.52-2.98-2.09-1.54-4.35-2.86-6.39-4.46-3.84-3.02-8.03-5.44-12.3-7.74-5.23-2.82-10.51-5.52-16.06-7.69-1.85-.72-3.74-1.46-5.59-2.19-1.83-.72-3.71-1.74-5.83-1.62-1.48-.97-3.35-.83-4.85-1.56-1.67-.81-3.52-.61-5.18-1.39-.96-.45-2.18-.36-3.27-.56-.53-.1-1.02-.4-1.55-.47-.66-.08-1.48.23-1.97-.07-1.01-.62-2.21-.07-3.03-.52-1.14-.62-2.23-.29-3.33-.42-.25-.03-.59.1-.74-.02-1.09-.93-2.38-.3-3.56-.48-1.18-.18-2.36-.44-3.54-.48-2.25-.08-4.5-.02-6.75-.02-2.5,0-5-.05-7.5.01-2.52.06-5.05-.27-7.55.45-1.37.39-2.83-.13-4.32.45-1.28.49-2.82.04-4.28.52-1.41.47-3.04.26-4.51.61-1.08.25-2.17.37-3.24.62-1.74.41-3.49.81-5.19,1.35-1.7.54-3.46.83-5.16,1.41-2.63.89-5.33,1.56-7.95,2.53-3.98,1.47-7.92,3.02-11.75,4.81-3.08,1.44-6.13,2.94-9.07,4.69-2.81,1.67-5.67,3.25-8.4,5.05-2.43,1.6-4.98,3.08-7.18,4.95-2.09,1.78-4.38,3.31-6.42,5.17-1.25,1.14-2.5,2.32-3.79,3.44-1.29,1.12-2.62,2.18-3.85,3.37-3.29,3.19-6.37,6.57-9.22,10.17-1.21,1.53-2.68,2.86-3.85,4.42-2.03,2.71-3.97,5.5-5.84,8.32-2.54,3.82-4.91,7.74-6.96,11.86-1.69,3.38-3.5,6.7-4.97,10.19-1.29,3.05-2.41,6.17-3.56,9.28-.78,2.12-1.22,4.33-2,6.42-.57,1.53-1.06,3.09-1.4,4.66-.55,2.61-1.54,5.15-1.54,7.87-1.08,2.08-.76,4.46-1.45,6.64-.29.91.31,2.21-.14,2.93-.62,1-.35,1.92-.37,2.85-.02.98-.51,1.89-.49,2.79.07,3.53-.33,7.03-.52,10.54-.24,4.27.85,8.51.48,12.79,0,.08-.03.19,0,.25,1.16,1.98.1,4.26.91,6.37.59,1.52.21,3.38.65,4.99.3,1.12.15,2.28.49,3.29.61,1.86.82,3.79,1.4,5.66.87,2.82,1.27,5.8,2.18,8.6,1.79,5.52,3.77,10.98,6.22,16.26,2.87,6.18,5.98,12.25,9.68,17.98,2.05,3.18,4.4,6.18,6.57,9.28,1.39,1.98,3.07,3.74,4.53,5.64,1.06,1.37,2.31,2.52,3.43,3.81,1.12,1.29,2.17,2.64,3.37,3.84,1.92,1.91,3.84,3.79,5.91,5.56,2.52,2.16,4.95,4.45,7.59,6.48,1.65,1.26,3.24,2.6,4.93,3.79,2.31,1.62,4.66,3.19,7.06,4.67,2.98,1.84,5.96,3.67,9.05,5.31,3.13,1.67,6.36,3.13,9.6,4.57,2.89,1.29,5.86,2.35,8.82,3.44,3.92,1.45,7.91,2.68,11.98,3.7,2.65.67,5.31,1.28,7.99,1.81,1.25.25,2.6.3,3.76.63,1.06.3,2.25-.06,3.03.44,1.06.69,2.07.26,3.09.42.32.05.78-.13.98.03,1.11.91,2.38.29,3.56.47,1.18.18,2.36.47,3.54.48,6.08.05,12.17.02,18.25.02.5,0,1.13.19,1.48-.04,1.07-.71,2.23-.54,3.31-.42,1.2.13,2.18-.48,3.3-.56,1.77-.12,3.59-.1,5.27-.57,1.13-.32,2.3-.11,3.29-.49,1.35-.52,2.77-.52,4.12-.92,1.34-.4,2.72-.69,4.08-1.01,2.27-.54,4.51-1.15,6.72-1.89,3.15-1.05,6.33-2,9.45-3.14,2.38-.87,4.73-1.87,7-3,4.22-2.09,8.4-4.28,12.56-6.49,2.41-1.28,4.71-2.77,6.96-4.34.9-.63,1.9-1.11,2.75-1.79,2.26-1.78,4.72-3.28,6.86-5.23,1.52-1.39,3.37-2.45,4.84-3.94.35-.36.65-.82,1.07-1.04,2.07-1.11,3.32-3.05,4.9-4.49-3.24-3.24-6.35-6.35-9.45-9.45-2.05,1.75-3.86,4.09-6.3,5.84-2.74,1.96-5.13,4.42-7.92,6.28-4.6,3.06-9.38,5.86-14.16,8.66-1.65.97-3.53,1.53-5.27,2.36-3.55,1.7-7.21,3.11-10.92,4.42-3.94,1.4-7.95,2.56-11.97,3.67-1.49.41-3.05.66-4.58,1.03-1.55.38-3.25.16-4.76.61-1.29.38-2.66.08-3.78.52-1.15.46-2.23.27-3.33.41-1.1.15-2.19.46-3.29.47-5.75.05-11.5.02-17.25.02-.42,0-.99.18-1.22-.03-.95-.87-2.06-.3-3.07-.47s-2.02-.37-3.04-.49c-1.59-.2-3.3-.06-4.76-.6-1.13-.42-2.25-.13-3.29-.5-1.26-.45-2.51-.82-3.87-.94-.98-.09-1.94-.53-2.9-.8-2.53-.72-5.03-1.63-7.61-2.11-2.93-.55-5.78-1.39-8.6-2.22-4.65-1.36-9.23-3.04-13.63-5.08-4.55-2.11-9.09-4.32-13.37-6.92-3.56-2.17-6.96-4.62-10.35-7.1-3.65-2.67-6.99-5.68-10.38-8.62-3.64-3.16-6.75-6.88-9.82-10.63-1.88-2.3-3.62-4.68-5.46-6.99-2.76-3.46-4.96-7.26-7.13-11.06-1.64-2.87-3.25-5.78-4.61-8.83-1.7-3.81-3.23-7.67-4.65-11.57-1.11-3.06-2.06-6.17-2.81-9.34-.38-1.61-.63-3.27-1.08-4.81-.6-2.04-.72-4.15-1.32-6.18-.32-1.1-.27-2.35-.52-3.53-.27-1.23-.1-2.51-.47-3.8-.36-1.23-.01-2.65-.09-3.98-.08-1.35-.5-2.7-.45-4.04.14-3.76-.4-7.53.4-11.31.45-2.11-.04-4.35.51-6.54.46-1.86.39-3.85.57-5.78.02-.23.15-.44.2-.67.27-1.22.55-2.44.8-3.67.4-1.94.78-3.89,1.16-5.84.34.75.64,1.74.28,2.16-.89,1.05.12,2.49-.94,3.39-.19,2.22-.57,4.4-.95,6.59-.41,2.39-.47,4.85-.53,7.28-.08,3.16-.07,6.33,0,9.5.06,3.1-.23,6.2.43,9.3.45,2.12.39,4.35.55,6.53,0,.08-.02.18,0,.25.84,2.22.86,4.61,1.45,6.89.46,1.74,1.05,3.48,1.05,5.32,1.57,3.3,2.16,6.92,3.41,10.33,1.6,4.35,3.46,8.57,5.29,12.81,1.07,2.48,2.72,4.68,3.81,7.17.47,1.06,1.12,2.06,1.81,2.99,2.68,3.63,4.95,7.54,7.88,11.02,2.92,3.47,5.7,7.06,8.91,10.28,1.85,1.85,3.67,3.73,5.76,5.36,2.32,1.81,4.19,4.13,6.5,6.02,2.49,2.03,5.01,4.01,7.52,6,3.17,2.51,6.59,4.59,9.99,6.72,3.01,1.88,6.23,3.43,9.41,5.02,1.3.65,2.72,1.11,4.13,1.49.73.19,1.67-.19,1.79,1.01.66-.27,1.14,1.25,1.91.18.09-.12.57-.03.82.06,2.16.81,4.31,1.66,6.48,2.46,2.17.8,4.31,1.77,6.55,2.26,2.45.53,4.82,1.35,7.32,1.74,1.96.31,3.98.72,5.95,1.24,1.19.32,2.52.31,3.78.51,1.25.2,2.52.22,3.8.51,1.19.27,2.49.06,3.74.06,1.33,0,2.67.07,4-.02,1.12-.08,2.19.2,3.34.09,3.83-.34,7.7.26,11.54-.54,1.8-.37,3.76-.13,5.51-.62,1.13-.32,2.29-.1,3.29-.49,1.76-.69,3.63-.99,5.43-1.33,2.47-.47,4.89-1.15,7.25-1.87,6.19-1.89,12.23-4.21,18.01-7.19,4.21-2.18,8.4-4.35,12.37-6.98,2.03-1.35,4.01-2.76,6.02-4.14,1.17-.8,2.33-1.63,3.47-2.47,2.01-1.49,3.81-3.23,5.73-4.82,2.32-1.92,4.32-4.23,6.47-6.37-5.9-5.82-11.61-11.59-17.56-17.13-5.31-4.93-10.26-10.24-15.42-15.33-10.58-10.44-21.19-20.85-31.78-31.28-6.29,4.91-13.29,7.56-21.39,7.55-8.12,0-15.1-2.8-21.28-7.79-2.79-2.26-5.22-4.99-7-8.09-2.08-3.62-3.7-7.5-4.33-11.69-.07-.47-.21-.94-.22-1.4-.18-7.9-.35-8.23,1.05-13.57,1.11-4.22,3.36-8,6.14-11.55-.43-.43-.76-.77-1.1-1.1-5.17-5.01-10.28-10.09-15.46-15.09-11.34-10.93-22.33-22.21-33.47-33.34-.62-.62-1.15-1.34-2.08-1.63-.3-.09-.48-.58-.77-.96,1.47-1.43,2.81-2.79,4.2-4.1,1.37-1.28,2.5-2.83,4.12-3.85,5.28,5.28,10.42,10.5,15.65,15.64,5.19,5.11,10.5,10.1,15.68,15.22,7.29,7.21,14.5,14.48,21.69,21.67,3.51-1.71,6.91-3.62,10.9-3.92,1-.81,2.19-.37,3.29-.51,1.18-.15,2.31-.71,3.54-.49.93.16,1.86.38,2.79.49,1.11.12,2.29-.28,3.29.51,1.67-.33,3.07.65,4.57,1.06,1.46.39,2.81,1.25,4.19,1.94.83.42,1.58,1.01,2.43,1.39,2.55,1.15,4.36,3.25,6.38,5.04.91.81,1.66,1.96,2.53,2.91.2.22.25.57.43.81,1.69,2.26,2.99,4.71,4.01,7.34,1.06,2.72,1.77,5.53,1.95,8.43.15,2.41.11,4.83,0,7.25-.06,1.42-.24,2.87-.66,4.22-.76,2.5-1.67,4.97-2.81,7.33-.65,1.35-.65,1.37.22,2.24,2.47,2.48,4.94,4.96,7.42,7.43,18.55,18.39,37.1,36.77,55.65,55.15.22.21.48.38.97.76.53-.64,1.03-1.19,1.47-1.79,1.4-1.92,2.86-3.82,4.19-5.78,2.91-4.32,5.62-8.79,8.08-13.38.95-1.77,2.07-3.49,2.7-5.38.66-1.99,1.71-3.8,2.47-5.73.92-2.36,2.02-4.7,2.75-7.1.74-2.44,2.06-4.75,2.1-7.39,1.56-2.7,1.56-5.84,2.4-8.74.87-3.01,1.19-6.22,1.52-9.36.37-3.49.78-6.99.61-10.54-.17-3.41.02-6.83-.06-10.25-.04-2.02.3-4.05-.44-6.06-.46-1.26.2-2.66-.44-4.07-.52-1.17-.35-2.67-.5-4.01-.25-2.31-.77-4.57-1.22-6.8-.61-3.02-1.45-6.03-2.39-8.99-.42-1.32-.75-2.69-1.3-3.96-1.27-2.89-1.89-6.06-3.69-8.72-.36-2.37-1.85-4.24-2.85-6.32-1.04-2.16-1.99-4.42-3.39-6.33-2.57-3.51-4.71-7.3-7.47-10.7-2.91-3.6-5.81-7.18-9.09-10.45-1.42-1.41-2.83-2.83-4.24-4.24-.16-.16-.28-.37-.42-.56.53-.1.85,0,1.05.21,5.01,5.22,10.57,9.93,14.87,15.83,1.74,2.39,3.71,4.61,5.44,7.01,1.08,1.51,1.91,3.2,2.86,4.81,1.58,2.68,3.28,5.3,4.72,8.05,2,3.82,3.58,7.84,5.23,11.83,1.89,4.58,3.32,9.32,4.7,14.04,1.01,3.44,1.72,7.02,2.18,10.63.17,1.35.06,2.81.51,4.02.46,1.24.26,2.39.41,3.58.16,1.26.43,2.52.48,3.79.08,2.08.1,4.17,0,6.25-.21,4.6.56,9.22-.47,13.8-.28,1.24.21,2.5-.43,3.83-.51,1.07-.03,2.48-.52,3.78-.47,1.23-.37,2.67-.58,4.02-.09.61-.36,1.19-.48,1.8-.12.61.25,1.35-.47,1.81-.38,2.71-1.33,5.28-1.97,7.92-.68,2.8-1.69,5.48-2.67,8.16-1.13,3.1-2.53,6.12-3.92,9.12-1.2,2.6-2.54,5.12-3.94,7.63-1.87,3.35-3.87,6.6-6.08,9.72-2.34,3.28-4.56,6.66-7.46,9.55,3.3,3.06,6.5,6.03,9.96,9.23,1.54-1.95,3.08-3.91,4.63-5.87.7-.88,1.45-1.72,2.11-2.63Z"/><path class="cls-1" d="m375.39,359.65c-6.22-6.09-12.21-12.39-18.64-18.28-6.44-5.91-12.38-12.37-18.63-18.48-6.28-6.14-12.32-12.52-18.81-18.46-6.51-5.96-12.5-12.48-18.81-18.66-6.27-6.15-12.39-12.45-18.81-18.47-8.56-8.04-16.68-16.55-25.07-24.94,1.48-1.84,2.88-3.6,4.31-5.33,1.52-1.84,2.85-3.81,4.28-5.72,1.61-2.15,3.12-4.36,4.55-6.63,1.62-2.57,3.44-5.06,4.73-7.79,2.46-5.23,5.3-10.27,7.39-15.7,1.69-4.4,3.15-8.86,4.7-13.3.72-2.05.95-4.29,1.61-6.34,1.44-4.52,1.92-9.2,2.87-13.79.5-2.4.48-4.9,1-7.34.26-1.19-.02-2.49.06-3.74.08-1.27.4-2.53.46-3.79.08-1.83.02-3.67.02-5.5,0-2.67-.01-5.33,0-8,.02-2.61-.79-5.16-.54-7.8.06-.66-.38-1.35-.45-2.04-.08-.82-.02-1.66-.02-2.5,0-.08.01-.2-.03-.23-.79-.64-.33-1.54-.47-2.31-.15-.85-.36-1.69-.49-2.54-.2-1.34-.04-2.84-.6-4-.47-.96-.24-1.88-.53-2.79-.55-1.7-.91-3.46-1.38-5.18-.59-2.17-1.18-4.34-1.84-6.49-.93-3.02-2.06-5.98-3.08-8.97-1.19-3.52-2.68-6.92-4.24-10.25-2.86-6.1-6.03-12.07-9.83-17.69-2.7-4-5.47-7.95-8.45-11.76-1.06-1.36-2.41-2.47-3.33-3.87-.79-1.19-1.83-2.06-2.72-3.11-.94-1.11-1.8-2.3-2.84-3.31-3.07-2.99-6.21-5.91-9.32-8.85-.12-.11-.23-.25-.36-.35-2.32-1.83-4.63-3.68-6.98-5.47-1.7-1.3-3.45-2.53-5.18-3.78-2.35-1.7-4.81-3.23-7.27-4.76-2.97-1.86-6.06-3.49-9.1-5.22-3.69-2.09-7.68-3.59-11.55-5.31-1.9-.84-3.88-1.5-5.84-2.2-3.93-1.42-7.89-2.75-11.98-3.67-2.27-.51-4.48-1.28-6.74-1.81-1.32-.31-2.89,0-3.98-.62-1.3-.73-2.64-.14-3.94-.8-1.02-.51-2.48-.23-3.75-.54-1.29-.31-2.72-.41-4.03-.47-3.51-.16-6.99-.89-10.54-.62-2.15.16-4.33-.05-6.5.05-3.51.16-7.03-.37-10.56.42-1.78.4-3.68.04-5.54.51-1.7.43-3.58.16-5.26.63-1.2.34-2.58-.02-3.49.56-.96.6-1.9.05-2.79.57-.77.46-1.78.78-2.66.73-1.03-.06-1.87.4-2.79.6-2.2.47-4.4,1.01-6.52,1.74-3.5,1.2-7.02,2.31-10.49,3.64-3.67,1.42-7.26,3-10.86,4.57-4.62,2.01-8.92,4.63-13.31,7.07-2.04,1.13-4.03,2.44-5.9,3.84-2.23,1.67-4.48,3.36-6.73,4.99-3.46,2.51-6.79,5.16-9.85,8.09-4.05,3.88-8.23,7.67-11.73,12.1-1.36,1.73-3.04,3.21-4.38,4.95-2.21,2.88-4.31,5.86-6.38,8.85-2.36,3.4-4.6,6.89-6.52,10.55-1.5,2.87-3.01,5.74-4.43,8.65-2.38,4.86-4.4,9.85-6.18,14.94-1.31,3.73-2.47,7.51-3.29,11.4-.49,2.29-1.11,4.55-1.6,6.85-.42,1.97-.71,3.98-1.31,5.93-.34,1.11-.1,2.34-.48,3.55-.35,1.1-.24,2.34-.5,3.54-.35,1.63-.27,3.35-.48,5.04-.36,2.9-.22,5.85-.5,8.79-.26,2.72-.37,5.52.34,8.3.38,1.49.21,3.17.03,4.73-.19,1.67.69,3.17.54,4.8-.18,2.04.87,3.98.5,6.04-.01.08-.04.21,0,.24.86.62.35,1.53.5,2.3.15.77.37,1.52.49,2.29.23,1.47.58,2.92.89,4.37.47,2.22,1.11,4.39,1.6,6.6.72,3.27,1.6,6.49,2.75,9.62.85,2.3,1.83,4.59,2.66,6.89.86,2.4,1.84,4.77,2.85,7.07,2.03,4.58,4.27,9.11,6.89,13.38,2.29,3.74,4.27,7.74,7.35,10.97,1.76,3.53,4.66,6.22,6.94,9.36,1.53,2.11,3.44,3.95,5.27,5.83,2.73,2.81,5.53,5.55,8.3,8.32.35.35.66.78,1.07,1.05,2.62,1.73,4.82,3.98,7.28,5.9,2.38,1.86,4.87,3.56,7.33,5.3,2.05,1.45,4.14,2.85,6.27,4.17,2.18,1.35,4.4,2.63,6.66,3.83,4.09,2.17,8.2,4.3,12.51,6.01,2.15.85,4.27,1.76,6.45,2.53,3.79,1.33,7.57,2.69,11.45,3.74,1.42.38,2.81,1.06,4.24,1.18,2.07.17,4.03.84,6.03,1.23,2.3.45,4.63.94,6.94,1.24,1.74.23,3.46.97,5.28.59,1.17.86,2.52.36,3.79.51,1.27.14,2.53.45,3.79.47,3.58.07,7.17.1,10.75,0,3.6-.1,7.21.41,10.8-.43,1.62-.38,3.34-.16,5.05-.43,2.35-.37,4.73-.57,7.07-1.09,1.32-.29,2.82-.07,4-.6,1.13-.51,2.3-.36,3.44-.75,1.44-.5,3-.9,4.53-1.14,2.87-.46,5.5-1.65,8.29-2.34,1.49-.37,2.89-1.19,4.32-1.6,3.43-.99,6.72-2.37,9.95-3.77,5.31-2.29,10.43-5.05,15.47-7.91,3.68-2.09,7.08-4.66,10.6-7.02,1.67-1.12,3.15-2.48,4.75-3.66,2.93-2.16,5.68-4.5,8.36-6.94,1.3-1.18,2.68-2.29,3.99-3.41,2.38,2.14,4.7,4.09,6.85,6.21,6.05,5.97,11.98,12.06,18.06,18,6.1,5.96,12.07,12.07,18.28,17.94,12.87,12.15,24.83,25.24,37.84,37.26,3.67,3.39,7.08,7.06,10.63,10.58,17.01,16.86,34.03,33.71,51.06,50.55.27.27.61.47.98.75,1.43-1.46,2.8-2.81,4.1-4.2,1.28-1.37,2.84-2.49,3.92-4.24-2.23-1.98-4.45-3.8-6.49-5.81-6.17-6.08-12.22-12.29-18.41-18.35Zm-123.33-122.02c-3.45-3.2-6.66-6.17-9.96-9.23,2.9-2.89,5.13-6.27,7.46-9.55,2.22-3.11,4.22-6.37,6.08-9.72,1.4-2.5,2.74-5.03,3.94-7.63,1.38-3.01,2.78-6.02,3.92-9.12.98-2.68,1.98-5.36,2.67-8.16.64-2.64,1.59-5.21,1.97-7.92.72-.46.35-1.19.47-1.81.12-.61.38-1.19.48-1.8.21-1.34.11-2.78.58-4.02.49-1.29.01-2.7.52-3.78.63-1.33.14-2.59.43-3.83,1.03-4.57.26-9.2.47-13.8.1-2.08.07-4.17,0-6.25-.05-1.27-.31-2.53-.48-3.79-.15-1.18.06-2.34-.41-3.58-.45-1.2-.34-2.67-.51-4.02-.46-3.61-1.17-7.19-2.18-10.63-1.38-4.72-2.8-9.46-4.7-14.04-1.65-3.99-3.23-8.01-5.23-11.83-1.44-2.75-3.14-5.37-4.72-8.05-.95-1.61-1.77-3.3-2.86-4.81-1.73-2.4-3.7-4.62-5.44-7.01-4.3-5.9-9.86-10.61-14.87-15.83-.2-.21-.52-.31-1.05-.21.14.19.26.39.42.56,1.41,1.42,2.82,2.83,4.24,4.24,3.28,3.27,6.18,6.85,9.09,10.45,2.76,3.41,4.9,7.19,7.47,10.7,1.4,1.91,2.35,4.17,3.39,6.33,1,2.08,2.48,3.95,2.85,6.32,1.8,2.66,2.42,5.83,3.69,8.72.56,1.27.88,2.63,1.3,3.96.94,2.96,1.78,5.97,2.39,8.99.45,2.23.97,4.5,1.22,6.8.14,1.34-.02,2.84.5,4.01.63,1.41-.03,2.81.44,4.07.74,2.01.4,4.04.44,6.06.07,3.41-.11,6.84.06,10.25.17,3.55-.24,7.05-.61,10.54-.33,3.13-.66,6.35-1.52,9.36-.84,2.9-.84,6.05-2.4,8.74-.04,2.64-1.36,4.95-2.1,7.39-.72,2.4-1.83,4.74-2.75,7.1-.76,1.94-1.81,3.74-2.47,5.73-.62,1.88-1.75,3.61-2.7,5.38-2.47,4.6-5.17,9.07-8.08,13.38-1.32,1.96-2.79,3.86-4.19,5.78-.43.6-.94,1.14-1.47,1.79-.49-.38-.75-.55-.97-.76-18.55-18.38-37.1-36.76-55.65-55.15-2.49-2.46-4.96-4.94-7.42-7.43-.87-.88-.87-.9-.22-2.24,1.14-2.36,2.05-4.83,2.81-7.33.41-1.35.6-2.8.66-4.22.1-2.41.15-4.84,0-7.25-.19-2.9-.89-5.7-1.95-8.43-1.02-2.63-2.32-5.08-4.01-7.34-.18-.24-.23-.59-.43-.81-.87-.95-1.62-2.1-2.53-2.91-2.01-1.79-3.83-3.89-6.38-5.04-.85-.38-1.6-.97-2.43-1.39-1.37-.7-2.72-1.55-4.19-1.94-1.5-.4-2.9-1.39-4.57-1.06-1-.79-2.19-.39-3.29-.51-.94-.11-1.86-.32-2.79-.49-1.23-.22-2.36.35-3.54.49-1.1.14-2.29-.31-3.29.51-3.99.29-7.39,2.2-10.9,3.92-7.18-7.18-14.4-14.46-21.69-21.67-5.18-5.12-10.49-10.11-15.68-15.22-5.22-5.14-10.37-10.36-15.65-15.64-1.63,1.02-2.76,2.57-4.12,3.85-1.4,1.3-2.74,2.66-4.2,4.1.29.38.47.87.77.96.92.29,1.46,1.01,2.08,1.63,11.14,11.13,22.14,22.41,33.47,33.34,5.19,5,10.29,10.08,15.46,15.09.34.33.68.68,1.1,1.1-2.79,3.56-5.03,7.33-6.14,11.55-1.4,5.34-1.24,5.67-1.05,13.57.01.47.15.94.22,1.4.64,4.2,2.26,8.08,4.33,11.69,1.78,3.1,4.21,5.83,7,8.09,6.18,4.99,13.16,7.79,21.28,7.79,8.1,0,15.11-2.64,21.39-7.55,10.6,10.42,21.2,20.83,31.78,31.28,5.16,5.09,10.12,10.4,15.42,15.33,5.95,5.53,11.66,11.3,17.56,17.13-2.14,2.14-4.14,4.45-6.47,6.37-1.92,1.59-3.73,3.33-5.73,4.82-1.14.85-2.3,1.67-3.47,2.47-2.01,1.38-3.99,2.79-6.02,4.14-3.97,2.63-8.15,4.8-12.37,6.98-5.78,2.99-11.82,5.3-18.01,7.19-2.36.72-4.78,1.4-7.25,1.87-1.8.34-3.66.64-5.43,1.33-1,.39-2.16.17-3.29.49-1.76.49-3.71.25-5.51.62-3.84.8-7.71.19-11.54.54-1.15.1-2.22-.17-3.34-.09-1.33.09-2.66.02-4,.02-1.25,0-2.55.21-3.74-.06-1.27-.28-2.54-.3-3.8-.51-1.27-.2-2.59-.2-3.78-.51-1.97-.52-3.98-.93-5.95-1.24-2.5-.4-4.87-1.22-7.32-1.74-2.24-.49-4.38-1.46-6.55-2.26-2.17-.8-4.32-1.65-6.48-2.46-.26-.1-.74-.18-.82-.06-.77,1.06-1.25-.45-1.91-.18-.12-1.2-1.06-.82-1.79-1.01-1.41-.38-2.82-.84-4.13-1.49-3.18-1.59-6.4-3.14-9.41-5.02-3.4-2.13-6.83-4.21-9.99-6.72-2.51-1.99-5.04-3.97-7.52-6-2.31-1.89-4.18-4.21-6.5-6.02-2.09-1.63-3.9-3.51-5.76-5.36-3.21-3.21-5.99-6.81-8.91-10.28-2.93-3.48-5.2-7.38-7.88-11.02-.69-.94-1.35-1.93-1.81-2.99-1.1-2.49-2.75-4.69-3.81-7.17-1.83-4.24-3.69-8.46-5.29-12.81-1.25-3.42-1.84-7.04-3.41-10.33,0-1.84-.6-3.58-1.05-5.32-.6-2.28-.62-4.67-1.45-6.89-.03-.07,0-.17,0-.25-.17-2.18-.1-4.41-.55-6.53-.66-3.1-.37-6.2-.43-9.3-.06-3.17-.08-6.33,0-9.5.06-2.43.13-4.89.53-7.28.37-2.19.76-4.38.95-6.59,1.06-.9.05-2.34.94-3.39.36-.43.06-1.41-.28-2.16-.39,1.95-.77,3.89-1.16,5.84-.25,1.23-.53,2.45-.8,3.67-.05.23-.17.44-.2.67-.18,1.93-.11,3.92-.57,5.78-.54,2.2-.06,4.43-.51,6.54-.8,3.78-.26,7.54-.4,11.31-.05,1.34.36,2.69.45,4.04.08,1.33-.26,2.75.09,3.98.38,1.29.21,2.57.47,3.8.26,1.19.2,2.44.52,3.53.6,2.03.72,4.14,1.32,6.18.45,1.54.71,3.2,1.08,4.81.75,3.17,1.7,6.28,2.81,9.34,1.42,3.91,2.95,7.77,4.65,11.57,1.36,3.05,2.97,5.96,4.61,8.83,2.17,3.81,4.38,7.61,7.13,11.06,1.84,2.31,3.58,4.7,5.46,6.99,3.07,3.75,6.18,7.47,9.82,10.63,3.39,2.94,6.73,5.95,10.38,8.62,3.39,2.47,6.79,4.93,10.35,7.1,4.28,2.6,8.82,4.81,13.37,6.92,4.4,2.04,8.98,3.72,13.63,5.08,2.82.83,5.68,1.67,8.6,2.22,2.58.48,5.08,1.39,7.61,2.11.97.28,1.92.71,2.9.8,1.36.12,2.61.49,3.87.94,1.04.37,2.15.09,3.29.5,1.46.54,3.16.4,4.76.6,1.02.13,2.03.32,3.04.49s2.12-.4,3.07.47c.23.21.81.03,1.22.03,5.75,0,11.5.03,17.25-.02,1.1,0,2.19-.33,3.29-.47,1.1-.15,2.18.04,3.33-.41,1.12-.44,2.49-.14,3.78-.52,1.51-.45,3.21-.24,4.76-.61,1.53-.37,3.09-.62,4.58-1.03,4.02-1.11,8.03-2.27,11.97-3.67,3.71-1.32,7.37-2.73,10.92-4.42,1.74-.83,3.62-1.4,5.27-2.36,4.77-2.79,9.55-5.6,14.16-8.66,2.8-1.86,5.18-4.32,7.92-6.28,2.44-1.74,4.26-4.09,6.3-5.84,3.11,3.11,6.22,6.22,9.45,9.45-1.57,1.43-2.82,3.38-4.9,4.49-.42.23-.72.69-1.07,1.04-1.47,1.49-3.32,2.56-4.84,3.94-2.15,1.96-4.61,3.45-6.86,5.23-.86.67-1.86,1.16-2.75,1.79-2.24,1.57-4.54,3.05-6.96,4.34-4.16,2.21-8.34,4.4-12.56,6.49-2.27,1.12-4.62,2.12-7,3-3.12,1.14-6.3,2.09-9.45,3.14-2.21.74-4.45,1.35-6.72,1.89-1.36.32-2.74.62-4.08,1.01-1.35.4-2.76.4-4.12.92-.99.38-2.16.17-3.29.49-1.68.47-3.5.44-5.27.57-1.12.08-2.1.69-3.3.56-1.08-.12-2.25-.3-3.31.42-.35.23-.98.04-1.48.04-6.08,0-12.17.03-18.25-.02-1.18,0-2.36-.3-3.54-.48-1.18-.18-2.45.44-3.56-.47-.2-.16-.65.02-.98-.03-1.01-.16-2.02.26-3.09-.42-.79-.51-1.97-.15-3.03-.44-1.16-.33-2.5-.38-3.76-.63-2.68-.53-5.34-1.15-7.99-1.81-4.06-1.02-8.05-2.25-11.98-3.7-2.96-1.1-5.93-2.16-8.82-3.44-3.24-1.44-6.47-2.91-9.6-4.57-3.08-1.64-6.07-3.47-9.05-5.31-2.4-1.48-4.75-3.05-7.06-4.67-1.7-1.19-3.29-2.53-4.93-3.79-2.65-2.03-5.07-4.31-7.59-6.48-2.06-1.77-3.99-3.65-5.91-5.56-1.21-1.2-2.26-2.56-3.37-3.84-1.12-1.29-2.37-2.43-3.43-3.81-1.47-1.9-3.14-3.66-4.53-5.64-2.18-3.1-4.52-6.1-6.57-9.28-3.69-5.73-6.8-11.8-9.68-17.98-2.45-5.27-4.42-10.74-6.22-16.26-.91-2.81-1.31-5.78-2.18-8.6-.57-1.87-.79-3.8-1.4-5.66-.34-1.02-.19-2.17-.49-3.29-.44-1.61-.06-3.47-.65-4.99-.81-2.11.25-4.39-.91-6.37-.04-.06-.01-.16,0-.25.38-4.29-.72-8.52-.48-12.79.2-3.51.6-7.01.52-10.54-.02-.9.47-1.81.49-2.79.02-.93-.24-1.85.37-2.85.45-.73-.15-2.02.14-2.93.69-2.18.37-4.57,1.45-6.64,0-2.72.99-5.26,1.54-7.87.33-1.57.82-3.13,1.4-4.66.78-2.09,1.22-4.3,2-6.42,1.15-3.11,2.27-6.22,3.56-9.28,1.47-3.49,3.28-6.81,4.97-10.19,2.05-4.12,4.42-8.04,6.96-11.86,1.88-2.82,3.81-5.61,5.84-8.32,1.17-1.56,2.64-2.89,3.85-4.42,2.85-3.6,5.92-6.98,9.22-10.17,1.22-1.18,2.56-2.25,3.85-3.37,1.29-1.12,2.53-2.3,3.79-3.44,2.04-1.86,4.33-3.39,6.42-5.17,2.2-1.87,4.75-3.35,7.18-4.95,2.73-1.8,5.59-3.38,8.4-5.05,2.94-1.74,5.99-3.25,9.07-4.69,3.83-1.79,7.78-3.35,11.75-4.81,2.62-.97,5.32-1.63,7.95-2.53,1.7-.58,3.46-.87,5.16-1.41,1.7-.54,3.45-.95,5.19-1.35,1.07-.25,2.16-.37,3.24-.62,1.47-.35,3.1-.14,4.51-.61,1.46-.48,3-.03,4.28-.52,1.49-.57,2.95-.05,4.32-.45,2.51-.72,5.03-.39,7.55-.45,2.5-.06,5-.01,7.5-.01,2.25,0,4.5-.05,6.75.02,1.19.04,2.36.3,3.54.48,1.18.18,2.46-.45,3.56.48.15.12.49,0,.74.02,1.1.13,2.19-.19,3.33.42.83.45,2.02-.1,3.03.52.49.3,1.31-.01,1.97.07.53.07,1.02.37,1.55.47,1.09.21,2.3.11,3.27.56,1.66.78,3.51.57,5.18,1.39,1.5.73,3.37.59,4.85,1.56,2.12-.12,4,.9,5.83,1.62,1.85.73,3.74,1.47,5.59,2.19,5.56,2.17,10.83,4.88,16.06,7.69,4.27,2.3,8.47,4.73,12.3,7.74,2.04,1.6,4.29,2.92,6.39,4.46,1.24.91,2.34,2,3.52,2.98,3.88,3.23,7.35,6.89,10.93,10.43,3.23,3.2,5.95,6.84,8.9,10.29,3.43,4,6.15,8.47,9.05,12.79,2.8,4.16,4.95,8.74,7.19,13.25,2.82,5.68,4.95,11.63,6.96,17.61,1.26,3.76,2.25,7.6,3.1,11.48.28,1.27.44,2.6.87,3.87.4,1.19.23,2.56.59,3.76.38,1.27.17,2.63.55,3.77.44,1.31.06,2.64.46,3.8.64,1.86.15,3.74.47,5.56,1,5.67.32,11.37.42,17.05.04,2.5-.66,5-.45,7.54-.76,1.19-.25,2.56-.55,3.78-.3,1.19-.18,2.44-.51,3.54-.83,2.79-.85,5.72-1.79,8.49-.51,1.51-.72,3.19-1.09,4.79-.74,3.18-1.78,6.27-2.72,9.38-.49,1.62-1.26,3.15-1.72,4.78-.44,1.57-1.08,3.09-1.7,4.55-1.96,4.61-4.09,9.16-6.54,13.53-1.25,2.23-2.46,4.52-3.98,6.62-1.52,2.1-2.95,4.27-4.4,6.42-.61.91-1.16,1.86-1.81,2.75-.66.91-1.41,1.75-2.11,2.63-1.55,1.96-3.09,3.92-4.63,5.87Z"/></g><circle class="cls-2" cx="142.11" cy="140.09" r="37"/></g></svg>
